<svg xmlns="http://www.w3.org/2000/svg" xmlns:xlink="http://www.w3.org/1999/xlink" width="849" height="572" viewBox="0 0 849 572">
  <defs>
    <clipPath id="clip-Artboard_3">
      <rect width="849" height="572"/>
    </clipPath>
  </defs>
  <g id="Artboard_3" data-name="Artboard – 3" clip-path="url(#clip-Artboard_3)">
    <g id="undraw_social_friends_nsbv" transform="translate(104 32)">
      <path id="Path_13222" data-name="Path 13222" d="M277.171,364.573l6.48,19.9,8.793-7.405-4.628-15.735Z" transform="translate(-75.445 -98.354)" fill="#ffb9b9"/>
      <path id="Path_13223" data-name="Path 13223" d="M322.014,350.661l2.314,31.008,56,1.388,24.529,56,13.421-5.554s-15.273-52.76-22.215-69.422-33.322-4.628-33.322-4.628l-2.314-4.628Z" transform="translate(-203.594 -169.136)" fill="#2f2e41"/>
      <path id="Path_13224" data-name="Path 13224" d="M441.563,486.022s.926,14.81,2.314,15.736,12.033-.926,12.033-.926,3.2.711,16.2-2.777c14.615-3.921-1.851-9.719-1.851-9.719s-10.645-6.942-15.273-10.182-7.868,3.7-7.868,3.7C448.043,484.634,441.563,486.022,441.563,486.022Z" transform="translate(-236.135 -203.605)" fill="#2f2e41"/>
      <path id="Path_13225" data-name="Path 13225" d="M950.333,571.681l1.473,51.566,15.715,60.405s-3.438,10.313-.982,12.769S980.29,703.3,980.29,703.3l-9.33-128.669Z" transform="translate(-374.621 -229.297)" fill="#2f2e41"/>
      <path id="Path_13226" data-name="Path 13226" d="M980.687,742.308s5.6,12.329-2.242,13.45-44.087,4.11-41.845-2.242,29.516-12.329,29.516-12.329Z" transform="translate(-370.855 -275.436)" fill="#2f2e41"/>
      <path id="Path_13227" data-name="Path 13227" d="M1003.87,508.868s-5.893,31.922-9.822,37.324,1.964,44.69,1.964,44.69,8.84,56.477,4.911,65.317-2.947,5.893-2.456,10.8,1.473,8.84,0,13.26-1.473,3.929-1.964,6.384,0,15.715,0,15.715-21.117,7.367-24.555-3.438c0,0,4.911-6.875,3.438-12.278a65.414,65.414,0,0,1-2.456-16.7V659.636l-22.591-84.47-5.4-30.448s1.473-30.939,6.875-33.886S1003.87,508.868,1003.87,508.868Z" transform="translate(-373.152 -212.157)" fill="#2f2e41"/>
      <path id="Path_13228" data-name="Path 13228" d="M992.038,770.863s7.366,16.206-2.947,17.68-57.95,5.4-55-2.947,38.8-16.206,38.8-16.206Z" transform="translate(-370.163 -283.112)" fill="#2f2e41"/>
      <circle id="Ellipse_494" data-name="Ellipse 494" cx="19.644" cy="19.644" r="19.644" transform="translate(592.896 116.006)" fill="#ffb9b9"/>
      <path id="Path_13229" data-name="Path 13229" d="M1010.756,299.235l-.366,25.087-24.084.082s6.112-19.638,3.375-23.745S1010.756,299.235,1010.756,299.235Z" transform="translate(-384.412 -154.903)" fill="#ffb9b9"/>
      <path id="Path_13230" data-name="Path 13230" d="M963.593,347.419s17.189-22.1,30.448-12.769,18.171,31.431,18.171,31.431l-2.947,61.879s-7.366,8.84-2.947,14.733,6.876,4.42,3.438,8.84-7.366,7.858-5.893,9.331-1.473,2.456-1.473,2.456l-52.057,1.473s1.473-1.964-2.947-7.858.982-13.751,0-16.7-1.964.491-2.455-6.384S963.593,347.419,963.593,347.419Z" transform="translate(-373.148 -164.152)" fill="#3f3d56"/>
      <path id="Path_13231" data-name="Path 13231" d="M970.978,525.309s-.982,12.278-8.349,14.242c-2.762.737-4.834-.668-6.345-2.711a12.061,12.061,0,0,1-.386-13.531l1.82-2.911Z" transform="translate(-375.621 -215.338)" fill="#ffb9b9"/>
      <path id="Path_13232" data-name="Path 13232" d="M1020.822,318.318s.491,9.822,0,11.3-.982,2.947,0,4.42.491,6.384-.491,6.875,1.964,4.911.982,7.858a21.312,21.312,0,0,1-2.455,4.911c-.491.982-1.282,2.742-1.282,2.742s-14.433-30.735-26.219-23.368-21.117,9.822-21.117,9.822S976.623,308.5,1020.822,318.318Z" transform="translate(-380.039 -159.852)" fill="#3f3d56"/>
      <path id="Path_13233" data-name="Path 13233" d="M995.844,350.311s15.715,1.473,14.733,22.1,1.473,53.039,1.473,53.039-27.011,41.253-31.431,44.2-4.911,2.455-4.42,4.911.982,4.42-.982,6.384a16.952,16.952,0,0,1-3.929,2.947s-15.715-5.4-14.242-10.313,8.349-12.769,8.349-12.769,11.786-19.153,12.277-22.1.491-2.456,1.965-3.929,5.4-7.367,5.4-10.313v-9.331l-4.117-49.865a14.456,14.456,0,0,1,3.834-11.2A12.506,12.506,0,0,1,995.844,350.311Z" transform="translate(-376.421 -169.008)" fill="#3f3d56"/>
      <path id="Path_13234" data-name="Path 13234" d="M980.032,261.272a8,8,0,0,1-7.417-1.7,6.057,6.057,0,0,1-1.2-7.253c1.179-1.959,3.474-2.917,5.656-3.6a50.079,50.079,0,0,1,14.873-2.269,13.354,13.354,0,0,1,6.973,1.448c1.018.616,1.88,1.461,2.887,2.1,1.851,1.166,4.073,1.554,6.106,2.364a15.662,15.662,0,0,1,8.926,9.453,18.876,18.876,0,0,1,.868,4.44,24.326,24.326,0,0,1-2.123,12.058c-2.74,5.975-7.956,11-8.693,17.531-2.807-2.357-3.63-6.31-5.8-9.261a12.008,12.008,0,0,0-6.555-4.449,3.817,3.817,0,0,1-1.985-.887,3.289,3.289,0,0,1-.621-1.789l-1.348-9.7c-.274-1.975-.645-4.133-2.161-5.429a7.681,7.681,0,0,0-3.218-1.4,51.9,51.9,0,0,0-8.4-1.37" transform="translate(-380.161 -140.771)" fill="#2f2e41"/>
      <path id="Path_13235" data-name="Path 13235" d="M1019.059,463.234,991.491,499.01S1016.876,477.79,1019.059,463.234Z" transform="translate(-385.824 -199.778)" opacity="0.1"/>
      <path id="Path_13236" data-name="Path 13236" d="M827.818,307.563l.261,33.788-16.012,24.017,13.1-26.929Z" transform="translate(-221.042 -83.718)" opacity="0.1"/>
      <path id="Path_13237" data-name="Path 13237" d="M604.611,385.492H437.63V382.05H361.914v3.442H194.245a11.3,11.3,0,0,0-11.3,11.295V625.435a11.3,11.3,0,0,0,11.3,11.3H604.611a11.3,11.3,0,0,0,11.3-11.3V396.787a11.3,11.3,0,0,0-11.3-11.3Z" transform="translate(-165.741 -177.68)" fill="#3f3d56"/>
      <rect id="Rectangle_1128" data-name="Rectangle 1128" width="402.671" height="227.147" transform="translate(32.351 227.773)" opacity="0.1"/>
      <circle id="Ellipse_495" data-name="Ellipse 495" cx="4.13" cy="4.13" r="4.13" transform="translate(229.212 213.319)" fill="#ff1d79"/>
      <rect id="Rectangle_1129" data-name="Rectangle 1129" width="400.128" height="227.064" transform="translate(33.027 227.66)" fill="#e6e6e6"/>
      <rect id="Rectangle_1130" data-name="Rectangle 1130" width="377.245" height="197.238" transform="translate(44.469 243.175)" fill="#fff"/>
      <rect id="Rectangle_1131" data-name="Rectangle 1131" width="96.934" height="156.308" transform="translate(78.747 263.64)" fill="#e6e6e6"/>
      <rect id="Rectangle_1132" data-name="Rectangle 1132" width="80.778" height="43.026" transform="translate(192.414 263.64)" fill="#ff1d79"/>
      <rect id="Rectangle_1133" data-name="Rectangle 1133" width="80.778" height="46.293" transform="translate(192.414 318.647)" fill="#e6e6e6"/>
      <rect id="Rectangle_1134" data-name="Rectangle 1134" width="80.778" height="43.026" transform="translate(192.414 376.923)" fill="#e6e6e6"/>
      <rect id="Rectangle_1135" data-name="Rectangle 1135" width="96.934" height="68.118" transform="translate(290.502 263.64)" fill="#e6e6e6"/>
      <rect id="Rectangle_1136" data-name="Rectangle 1136" width="96.934" height="68.118" transform="translate(290.502 351.83)" fill="#ff1d79"/>
      <path id="Path_13238" data-name="Path 13238" d="M620.777,719.363h-39.3v-2.831a.561.561,0,0,0-.561-.561H567.444a.561.561,0,0,0-.561.561h0v2.831h-8.421v-2.831a.561.561,0,0,0-.561-.561H544.426a.561.561,0,0,0-.561.561h0v2.831h-8.421v-2.831a.561.561,0,0,0-.561-.561H521.409a.561.561,0,0,0-.561.561h0v2.831h-8.421v-2.831a.561.561,0,0,0-.561-.561H498.391a.561.561,0,0,0-.561.561h0v2.831h-8.421v-2.831a.561.561,0,0,0-.561-.561H475.374a.561.561,0,0,0-.561.561h0v2.831h-8.421v-2.831a.561.561,0,0,0-.561-.561H452.356a.561.561,0,0,0-.561.561h0v2.831h-8.421v-2.831a.561.561,0,0,0-.561-.561H337.27a.561.561,0,0,0-.561.561h0v2.831h-8.421v-2.831a.561.561,0,0,0-.561-.561H314.252a.561.561,0,0,0-.561.561v2.831H305.27v-2.831a.561.561,0,0,0-.561-.561H291.235a.561.561,0,0,0-.561.561h0v2.831h-8.421v-2.831a.561.561,0,0,0-.561-.561H268.217a.561.561,0,0,0-.561.561h0v2.831h-8.421v-2.831a.561.561,0,0,0-.561-.561H245.2a.561.561,0,0,0-.561.561h0v2.831h-8.421v-2.831a.561.561,0,0,0-.561-.561H222.182a.561.561,0,0,0-.561.561h0v2.831H213.2v-2.831a.561.561,0,0,0-.561-.561H199.165a.561.561,0,0,0-.561.561h0v2.831H172.779a13.474,13.474,0,0,0-13.474,13.474v6.092A13.474,13.474,0,0,0,172.779,752.4h448a13.474,13.474,0,0,0,13.474-13.473v-6.092a13.474,13.474,0,0,0-13.474-13.474Z" transform="translate(-159.305 -268.572)" fill="#3f3d56"/>
      <path id="Path_13239" data-name="Path 13239" d="M290.52,176.888a21.892,21.892,0,0,0-4.286,11.254c-.5,4.964-1.953,12.9-6.182,17.077-6.444,6.358-8.592,11.127-8.592,11.127l2.148,2.384c0-4.769,2.864-5.564,2.864-5.564l-.716,5.564c19.331,18.28,62.29,1.59,62.29,1.59l-1.432-14.306c3.58,1.59,5.012,12.717,5.012,12.717l5.728-1.59s-10.024-17.485-16.467-33.381-16.468-11.922-16.468-11.922C302.6,165.523,294.8,171.378,290.52,176.888Z" transform="translate(-189.833 -119.716)" fill="#2f2e41"/>
      <path id="Path_13240" data-name="Path 13240" d="M390.055,166.606,397,121.25s-7.4-18.05,5.091-19.9,4.165,21.752,4.165,21.752l-4.165,43.5Z" transform="translate(-222.115 -101.246)" fill="#ffb9b9"/>
      <path id="Path_13241" data-name="Path 13241" d="M382.425,482.642c2.314,3.7,2.777,22.678,2.777,22.678l16.2-10.182-4.628-16.661Z" transform="translate(-220.038 -203.927)" fill="#ffb9b9"/>
      <path id="Path_13242" data-name="Path 13242" d="M337.849,347.482s-20.364,0-31.471,6.479c-3.57,2.083-4.606,5.839-4.368,9.978a21.507,21.507,0,0,0,20.261,20.019l31.314,1.937C348.957,398.854,359.6,449.3,359.6,449.3l16.661-2.314s-2.314-17.124-1.851-18.05,4.628-37.025,1.851-56-40.727-11.107-40.727-11.107Z" transform="translate(-198.14 -168.271)" fill="#2f2e41"/>
      <path id="Path_13243" data-name="Path 13243" d="M384.586,506.262s-1.388,13.422-.926,15.273,19.438,2.777,36.562-2.314-2.314-10.645-2.314-10.645-11.57-7.868-14.81-10.645-7.868,3.7-7.868,3.7C394.306,505.8,384.586,506.262,384.586,506.262Z" transform="translate(-220.348 -209.034)" fill="#2f2e41"/>
      <circle id="Ellipse_496" data-name="Ellipse 496" cx="16.661" cy="16.661" r="16.661" transform="translate(100.231 94.872) rotate(-80.783)" fill="#ffb9b9"/>
      <path id="Path_13244" data-name="Path 13244" d="M312.016,227.936c6.017,8.793-1.388,13.884-1.388,13.884l-3.24,24.066s34.711,3.24,40.727-1.388-6.942-19.9-11.57-21.289-5.554-20.364-5.554-20.364Z" transform="translate(-199.613 -134.345)" fill="#ffb9b9"/>
      <path id="Path_13245" data-name="Path 13245" d="M307.37,243.855,289.109,241l-2.083,19.669s.926,43.967,0,51.835,15.736,16.661,15.736,16.661,24.066-1.851,28.694-4.165,19.438,2.314,19.438,2.314a12.515,12.515,0,0,0,4.86-.694c2.777-.926-7.174-66.876-7.174-66.876l-8.794-20.364-10.645,4.165-3.24,15.273Z" transform="translate(-194.06 -138.845)" fill="#ff1d79"/>
      <path id="Path_13246" data-name="Path 13246" d="M207,142.109l18.512-23.6,12.959-31.934-18.05-6.942-7.405,26.38-12.959,15.736-.463,2.777Z" transform="translate(-54.328 -21.675)" fill="#ff1d79"/>
      <path id="Path_13247" data-name="Path 13247" d="M288.92,315.438l45.851,1.726s17.088-9.415,20.351,2.789-21.135,6.618-21.135,6.618l-43.7.822Z" transform="translate(-194.586 -159.075)" fill="#ffb9b9"/>
      <path id="Path_13248" data-name="Path 13248" d="M288.178,292.33l21.289,1.388,2.777,14.347s-25.917-.463-36.1-.926,0-43.5,1.388-56.463,8.331-9.256,8.331-9.256l4.165,3.24Z" transform="translate(-189.89 -139.268)" fill="#ff1d79"/>
      <path id="Path_13249" data-name="Path 13249" d="M138.923,195.294l18.512,7.405-20.364-4.166-1.389-26.38Z" transform="translate(-36.932 -46.86)" opacity="0.15"/>
      <path id="Path_13250" data-name="Path 13250" d="M175.362,98.36l-30.568.728L141.155,83.8h34.207Z" transform="translate(-38.422 -22.811)" fill="#2f2e41"/>
    </g>
  </g>
</svg>
