<svg xmlns="http://www.w3.org/2000/svg" xmlns:xlink="http://www.w3.org/1999/xlink" width="849" height="572" viewBox="0 0 849 572">
  <defs>
    <clipPath id="clip-Artboard_2">
      <rect width="849" height="572"/>
    </clipPath>
  </defs>
  <g id="Artboard_2" data-name="Artboard – 2" clip-path="url(#clip-Artboard_2)">
    <g id="undraw_accept_tasks_po1c" transform="translate(91 55)">
      <path id="Path_13194" data-name="Path 13194" d="M913.633,410.856A287.251,287.251,0,0,1,876.4,482.265c-.362.51-.729,1.009-1.1,1.516l-47.641-15.428c.215-.492.45-1.043.7-1.645,15-35.489,105.3-251.817,95.709-296.917C924.989,173.494,954.9,296.019,913.633,410.856Z" transform="translate(-306.243 -169.791)" fill="#e6e6e6"/>
      <path id="Path_13195" data-name="Path 13195" d="M889.923,520.418c-.582.439-1.181.872-1.785,1.294L852.4,510.138c.428-.4.925-.861,1.5-1.387,9.355-8.744,37.148-34.944,64.066-62.718,28.928-29.847,56.851-61.508,59.823-75.277C977.225,373.9,959.6,469.475,889.923,520.418Z" transform="translate(-310.572 -204.967)" fill="#e6e6e6"/>
      <path id="Path_13196" data-name="Path 13196" d="M828.8,721.743H216.153A20.542,20.542,0,0,1,195.611,701.2h0q333.126-38.716,653.73,0h0A20.542,20.542,0,0,1,828.8,721.743Z" transform="translate(-195.611 -259.418)" fill="#2f2e41"/>
      <path id="Path_13197" data-name="Path 13197" d="M849.341,614.218l-653.73-1.208,75.765-127.484.363-.6V203.962a25.966,25.966,0,0,1,25.97-25.968H743.621a25.966,25.966,0,0,1,25.968,25.97v282.89Z" transform="translate(-195.611 -171.227)" fill="#3f3d56"/>
      <path id="Path_13198" data-name="Path 13198" d="M316.856,199.966a8.468,8.468,0,0,0-8.459,8.459V464.6a8.469,8.469,0,0,0,8.459,8.459H767.579a8.469,8.469,0,0,0,8.459-8.459V208.424a8.468,8.468,0,0,0-8.459-8.459Z" transform="translate(-215.353 -175.073)" fill="#fff"/>
      <path id="Path_13199" data-name="Path 13199" d="M316.518,572.015a3.635,3.635,0,0,0-3.293,2.11l-23.346,50.752a3.625,3.625,0,0,0,3.293,5.14H784.118a3.625,3.625,0,0,0,3.242-5.247l-25.376-50.752a3.607,3.607,0,0,0-3.242-2Z" transform="translate(-212.053 -240.195)" fill="#2f2e41"/>
      <circle id="Ellipse_486" data-name="Ellipse 486" cx="5.438" cy="5.438" r="5.438" transform="translate(319.615 9.789)" fill="#fff"/>
      <path id="Path_13200" data-name="Path 13200" d="M529.125,654.042a3.631,3.631,0,0,0-3.5,2.682l-5.856,21.751a3.625,3.625,0,0,0,3.5,4.568H634.638a3.624,3.624,0,0,0,3.424-4.811l-7.529-21.751a3.627,3.627,0,0,0-3.426-2.439Z" transform="translate(-252.328 -254.552)" fill="#2f2e41"/>
      <path id="Path_13201" data-name="Path 13201" d="M590.053,375.126v4.833H91.84l.375-.6v-4.23Z" transform="translate(-16.075 -65.66)" fill="#2f2e41"/>
      <path id="Path_13202" data-name="Path 13202" d="M660.79,254.83H543.241v2.147H660.79a21.821,21.821,0,0,1,0,43.642H482.918a21.821,21.821,0,1,1,0-43.642h6.647V254.83h-6.647a23.968,23.968,0,1,0,0,47.936H660.79a23.968,23.968,0,1,0,0-47.936Z" transform="translate(-241.705 -184.676)" fill="#e6e6e6"/>
      <path id="Path_13203" data-name="Path 13203" d="M660.79,344.619H543.241v2.147H660.79a21.821,21.821,0,0,1,0,43.642H482.918a21.821,21.821,0,1,1,0-43.642h6.647v-2.147h-6.647a23.968,23.968,0,0,0,0,47.936H660.79a23.968,23.968,0,0,0,0-47.936Z" transform="translate(-241.705 -200.392)" fill="#e6e6e6"/>
      <path id="Path_13204" data-name="Path 13204" d="M660.79,434.407H543.241v2.147H660.79a21.821,21.821,0,0,1,0,43.642H482.918a21.821,21.821,0,1,1,0-43.642h6.647v-2.147h-6.647a23.968,23.968,0,1,0,0,47.936H660.79a23.968,23.968,0,0,0,0-47.936Z" transform="translate(-241.705 -216.108)" fill="#e6e6e6"/>
      <path id="Path_40" data-name="Path 40" d="M510.789,247.954a6.384,6.384,0,1,0,0,12.767h28a6.384,6.384,0,1,0,.21-12.766c-.07,0-.14,0-.21,0Z" transform="translate(-249.661 -183.472)" fill="#3f3d56"/>
      <path id="Path_40-2" data-name="Path 40" d="M510.789,339.044a6.384,6.384,0,1,0,0,12.767h28a6.384,6.384,0,1,0,.21-12.766c-.07,0-.14,0-.21,0Z" transform="translate(-249.661 -199.416)" fill="#3f3d56"/>
      <path id="Path_40-3" data-name="Path 40" d="M510.789,427.532a6.384,6.384,0,1,0,0,12.767h28a6.384,6.384,0,0,0,.21-12.766q-.1,0-.21,0Z" transform="translate(-249.661 -214.905)" fill="#3f3d56"/>
      <path id="Path_40-4" data-name="Path 40" d="M497.326,276.146a6.384,6.384,0,1,0,0,12.767H657.372a6.384,6.384,0,0,0,.21-12.766q-.1,0-.21,0Z" transform="translate(-247.304 -188.407)" fill="#ff1d79"/>
      <path id="Path_40-5" data-name="Path 40" d="M497.326,365.935a6.384,6.384,0,1,0,0,12.767H657.372a6.384,6.384,0,0,0,.21-12.766q-.1,0-.21,0Z" transform="translate(-247.304 -204.123)" fill="#ff1d79"/>
      <path id="Path_40-6" data-name="Path 40" d="M497.326,455.723a6.384,6.384,0,1,0,0,12.767H657.372a6.384,6.384,0,1,0,.21-12.766q-.1,0-.21,0Z" transform="translate(-247.304 -219.839)" fill="#e6e6e6"/>
      <circle id="Ellipse_487" data-name="Ellipse 487" cx="12.783" cy="12.783" r="12.783" transform="translate(177.796 80.836)" fill="#ff1d79"/>
      <path id="Path_13205" data-name="Path 13205" d="M228.787,117.623l-3.724-4.788,2.165-1.685,1.764,2.267,5.956-6.288,1.992,1.888Z" transform="translate(-39.394 -18.751)" fill="#fff"/>
      <circle id="Ellipse_488" data-name="Ellipse 488" cx="12.783" cy="12.783" r="12.783" transform="translate(177.796 154.909)" fill="#ff1d79"/>
      <path id="Path_13206" data-name="Path 13206" d="M228.787,207.412l-3.724-4.788,2.165-1.685,1.764,2.267,5.956-6.288,1.992,1.888Z" transform="translate(-39.394 -34.468)" fill="#fff"/>
      <circle id="Ellipse_489" data-name="Ellipse 489" cx="12.783" cy="12.783" r="12.783" transform="translate(177.796 228.981)" fill="#e6e6e6"/>
      <circle id="Ellipse_490" data-name="Ellipse 490" cx="12.783" cy="12.783" r="12.783" transform="translate(457.983 80.836)" fill="#e6e6e6"/>
      <circle id="Ellipse_491" data-name="Ellipse 491" cx="12.783" cy="12.783" r="12.783" transform="translate(457.983 154.909)" fill="#e6e6e6"/>
      <circle id="Ellipse_492" data-name="Ellipse 492" cx="12.783" cy="12.783" r="12.783" transform="translate(457.983 228.981)" fill="#e6e6e6"/>
      <path id="Path_13207" data-name="Path 13207" d="M228.787,297.2l-3.724-4.788,2.165-1.685,1.764,2.267,5.956-6.288,1.992,1.887Z" transform="translate(-39.394 -50.184)" fill="#fff"/>
      <rect id="Rectangle_1122" data-name="Rectangle 1122" width="1.505" height="10.109" transform="translate(466.475 90.576) rotate(-45)" fill="#fff"/>
      <rect id="Rectangle_1123" data-name="Rectangle 1123" width="10.109" height="1.505" transform="translate(466.851 96.66) rotate(-45)" fill="#fff"/>
      <rect id="Rectangle_1124" data-name="Rectangle 1124" width="1.505" height="10.109" transform="translate(466.475 164.649) rotate(-45)" fill="#fff"/>
      <rect id="Rectangle_1125" data-name="Rectangle 1125" width="10.109" height="1.505" transform="translate(466.851 170.733) rotate(-45)" fill="#fff"/>
      <rect id="Rectangle_1126" data-name="Rectangle 1126" width="1.505" height="10.109" transform="translate(466.475 238.722) rotate(-45)" fill="#fff"/>
      <rect id="Rectangle_1127" data-name="Rectangle 1127" width="10.109" height="1.505" transform="translate(466.851 244.806) rotate(-45)" fill="#fff"/>
      <path id="Path_13208" data-name="Path 13208" d="M424.864,450.849h0a9.231,9.231,0,0,0,1.709-13.938L414.3,423.534,402.515,429.5l9.022,17.818a9.23,9.23,0,0,0,13.328,3.529Z" transform="translate(-231.826 -214.205)" fill="#ffb8b8"/>
      <path id="Path_13209" data-name="Path 13209" d="M235.132,498.616h0a9.231,9.231,0,0,0,7.821-11.663l-4.906-17.477H224.836v19.972a9.23,9.23,0,0,0,10.3,9.169Z" transform="translate(-200.726 -222.246)" fill="#ffb8b8"/>
      <path id="Path_13210" data-name="Path 13210" d="M134.211,491.714l24.956-3.915-10.276-10.766h-14.68Z" transform="translate(-23.492 -83.498)" fill="#ffb8b8"/>
      <path id="Path_13211" data-name="Path 13211" d="M232.547,661.757l25.934,6.85c-4.777-9.909-7.718-18.676-5.872-24.466l-12.233-1.468Z" transform="translate(-202.076 -252.562)" fill="#ffb8b8"/>
      <path id="Path_13212" data-name="Path 13212" d="M43.46,436.292l15.169,2.936,41.592-134.074,17.615,133.585h16.148l-1.468-188.878H69.884Z" transform="translate(-7.607 -43.735)" fill="#575a88"/>
      <path id="Path_13213" data-name="Path 13213" d="M334.272,667.9l24.685-8.12a4.8,4.8,0,0,0,2.794-6.707h0a4.8,4.8,0,0,0-4.618-2.643l-5.6.378-2.194-1.235a1.276,1.276,0,0,0-1.806,1.6l2.024,4.915-20.551-1.468-1.014,8.112a4.814,4.814,0,0,0,6.281,5.17Z" transform="translate(-218.776 -253.741)" fill="#575a88"/>
      <path id="Path_13214" data-name="Path 13214" d="M233.49,673.21l26.833,1.74a4.968,4.968,0,0,0,5.273-5.36h0a4.968,4.968,0,0,0-3.412-4.321l-5.522-1.8-1.63-2.033a1.321,1.321,0,0,0-2.351.837l.044,5.5-19.162-9.347-4.107,7.4a4.981,4.981,0,0,0,4.033,7.389Z" transform="translate(-201.426 -255.32)" fill="#575a88"/>
      <circle id="Ellipse_493" data-name="Ellipse 493" cx="18.105" cy="18.105" r="18.105" transform="translate(71.084 64.223)" fill="#ffb8b8"/>
      <path id="Path_13215" data-name="Path 13215" d="M289.488,304.833h24.955V280.856H289.488C291.55,288.261,291.284,296.329,289.488,304.833Z" transform="translate(-212.043 -189.231)" fill="#ffb8b8"/>
      <path id="Path_13216" data-name="Path 13216" d="M264.972,400.495l68.5.979,6.851-72.374a22.6,22.6,0,0,0-15.333-21.4l-10.6-3.6-5.872-6.85c-7.414-1.6-15.48-1.214-23.977.489l-6.361,9.3-6.85,2.186a22.531,22.531,0,0,0-15.672,22.1C260.759,357.646,264.722,382.116,264.972,400.495Z" transform="translate(-206.12 -191.923)" fill="#ff1d79"/>
      <path id="Path_13217" data-name="Path 13217" d="M221.87,442.379,239,444.336l19.573-78.781,1.957-50.889-.578.28a32.413,32.413,0,0,0-17.7,22.97Z" transform="translate(-200.207 -195.149)" fill="#ff1d79"/>
      <path id="Path_13218" data-name="Path 13218" d="M392.471,412.292l13.212-6.361-38.751-72.309a50.663,50.663,0,0,0-25.839-23.108h0l7.34,46Z" transform="translate(-221.075 -194.422)" fill="#ff1d79"/>
      <path id="Path_13219" data-name="Path 13219" d="M288.265,280.442s17.753-1.053,18.138-4.124,2.976-10.076,6.047-9.691,11.581-9.853,9.759-13.979-10.425-19.32-27.988-12.318-15.55,24.564-13.727,28.691S288.265,280.442,288.265,280.442Z" transform="translate(-210.265 -181.82)" fill="#2f2e41"/>
      <path id="Path_13220" data-name="Path 13220" d="M816.34,558.338a.884.884,0,0,0-.852.653l-1.426,5.3a.883.883,0,0,0,.852,1.112h27.12a.882.882,0,0,0,.834-1.172l-1.833-5.3a.883.883,0,0,0-.834-.594Z" transform="translate(-303.857 -237.801)" fill="#ff1d79"/>
      <path id="Path_13221" data-name="Path 13221" d="M768.34,558.338a.884.884,0,0,0-.852.653l-1.426,5.3a.883.883,0,0,0,.852,1.112h27.12a.882.882,0,0,0,.834-1.172l-1.833-5.3a.883.883,0,0,0-.834-.594Z" transform="translate(-295.455 -237.801)" fill="#ff1d79"/>
    </g>
  </g>
</svg>
