<svg xmlns="http://www.w3.org/2000/svg" xmlns:xlink="http://www.w3.org/1999/xlink" width="1202" height="748" viewBox="0 0 1202 748">
  <defs>
    <clipPath id="clip-Web_1920_1">
      <rect width="1202" height="748"/>
    </clipPath>
  </defs>
  <g id="Web_1920_1" data-name="Web 1920 – 1" clip-path="url(#clip-Web_1920_1)">
    <g id="Group_2669" data-name="Group 2669" transform="translate(33 27)">
      <g id="undraw_coming_home_52ir" transform="translate(0 0)">
        <path id="Path_1" data-name="Path 1" d="M168.9,796.556l-1.951-.439C188.7,699.366,243.377,611.508,320.9,548.725A444.114,444.114,0,0,1,1033.05,794.936l-1.949.443C985.05,593.17,807.829,451.945,600.134,451.945,395.16,451.945,213.8,596.874,168.9,796.556Z" transform="translate(-31.5 -103.444)" fill="#3f3d56"/>
        <circle id="Ellipse_1" data-name="Ellipse 1" cx="54.315" cy="54.315" r="54.315" transform="translate(362.818 15.088)" fill="#ff6584"/>
        <path id="Path_2" data-name="Path 2" d="M214.631,784.217c1.694,6.262,7.5,10.14,7.5,10.14s3.056-6.274,1.362-12.536-7.5-10.14-7.5-10.14S212.937,777.955,214.631,784.217Z" transform="translate(-31.5 -103.444)" fill="#3f3d56"/>
        <path id="Path_3" data-name="Path 3" d="M217.12,782.871c4.648,4.525,5.216,11.481,5.216,11.481s-6.969-.38-11.617-4.905-5.216-11.481-5.216-11.481S212.471,778.346,217.12,782.871Z" transform="translate(-31.5 -103.444)" fill="#ff1d79"/>
        <path id="Path_4" data-name="Path 4" d="M343.631,784.217c1.694,6.262,7.5,10.14,7.5,10.14s3.056-6.274,1.362-12.536-7.5-10.14-7.5-10.14S341.937,777.955,343.631,784.217Z" transform="translate(-31.5 -103.444)" fill="#3f3d56"/>
        <path id="Path_5" data-name="Path 5" d="M346.12,782.871c4.648,4.525,5.216,11.481,5.216,11.481s-6.969-.38-11.617-4.905-5.216-11.481-5.216-11.481S341.471,778.346,346.12,782.871Z" transform="translate(-31.5 -103.444)" fill="#ff1d79"/>
        <path id="Path_6" data-name="Path 6" d="M337.71,181.988l-20.424-16.34L431.66,63.529H721.679v89.865l-187.9,126.628Z" fill="#3f3d56"/>
        <path id="Path_7" data-name="Path 7" d="M774.556,120.812V65.569H736.05V79.1L721.679,63.529l-93.95,102.119-36.763,24.509-57,416.463,85.966,85.965H819.714V169.733Z" fill="#ccc"/>
        <rect id="Rectangle_1" data-name="Rectangle 1" width="310.443" height="526.936" transform="translate(317.286 165.648)" fill="#f2f2f2"/>
        <rect id="Rectangle_2" data-name="Rectangle 2" width="57.187" height="128.671" transform="translate(437.787 563.914)" fill="#ccc"/>
        <path id="Path_8" data-name="Path 8" d="M376.515,600.677V580.253H352.007v20.424h24.508Z" fill="#3f3d56"/>
        <path id="Path_9" data-name="Path 9" d="M374.473,617.016H352.007V637.44h24.508V617.016Z" fill="#3f3d56"/>
        <rect id="Rectangle_3" data-name="Rectangle 3" width="24.509" height="20.424" transform="translate(392.855 580.253)" fill="#3f3d56"/>
        <rect id="Rectangle_4" data-name="Rectangle 4" width="24.509" height="20.424" transform="translate(392.855 617.016)" fill="#3f3d56"/>
        <path id="Path_10" data-name="Path 10" d="M543.991,600.677V580.253H519.483v20.424h24.508Z" fill="#3f3d56"/>
        <path id="Path_11" data-name="Path 11" d="M541.949,617.016H519.483V637.44h24.508V617.016Z" fill="#3f3d56"/>
        <rect id="Rectangle_5" data-name="Rectangle 5" width="24.509" height="20.424" transform="translate(560.33 580.253)" fill="#3f3d56"/>
        <rect id="Rectangle_6" data-name="Rectangle 6" width="24.509" height="20.424" transform="translate(560.33 617.016)" fill="#3f3d56"/>
        <path id="Path_12" data-name="Path 12" d="M715.552,192.2V171.776H691.043V192.2h24.509Z" fill="#3f3d56"/>
        <path id="Path_13" data-name="Path 13" d="M713.51,208.539H691.043v20.423h24.509V208.539Z" fill="#3f3d56"/>
        <rect id="Rectangle_7" data-name="Rectangle 7" width="24.509" height="20.424" transform="translate(731.891 171.776)" fill="#3f3d56"/>
        <rect id="Rectangle_8" data-name="Rectangle 8" width="24.509" height="20.424" transform="translate(731.891 208.539)" fill="#3f3d56"/>
        <path id="Path_14" data-name="Path 14" d="M715.552,306.573V286.149H691.043v20.424h24.509Z" fill="#3f3d56"/>
        <path id="Path_15" data-name="Path 15" d="M713.51,322.912H691.043v20.424h24.509V322.912Z" fill="#3f3d56"/>
        <rect id="Rectangle_9" data-name="Rectangle 9" width="24.509" height="20.424" transform="translate(731.891 286.149)" fill="#3f3d56"/>
        <rect id="Rectangle_10" data-name="Rectangle 10" width="24.509" height="20.424" transform="translate(731.891 322.912)" fill="#3f3d56"/>
        <path id="Path_16" data-name="Path 16" d="M715.552,420.947V400.523H691.043v20.424h24.509Z" fill="#3f3d56"/>
        <path id="Path_17" data-name="Path 17" d="M713.51,437.286H691.043V457.71h24.509V437.286Z" fill="#3f3d56"/>
        <rect id="Rectangle_11" data-name="Rectangle 11" width="24.509" height="20.424" transform="translate(731.891 400.523)" fill="#3f3d56"/>
        <rect id="Rectangle_12" data-name="Rectangle 12" width="24.509" height="20.424" transform="translate(731.891 437.286)" fill="#3f3d56"/>
        <path id="Path_18" data-name="Path 18" d="M715.552,535.321V514.9H691.043v20.424h24.509Z" fill="#3f3d56"/>
        <path id="Path_19" data-name="Path 19" d="M713.51,551.66H691.043v20.424h24.509V551.66Z" fill="#3f3d56"/>
        <rect id="Rectangle_13" data-name="Rectangle 13" width="24.509" height="20.424" transform="translate(731.891 514.897)" fill="#3f3d56"/>
        <rect id="Rectangle_14" data-name="Rectangle 14" width="24.509" height="20.424" transform="translate(731.891 551.66)" fill="#3f3d56"/>
        <rect id="Rectangle_15" data-name="Rectangle 15" width="236.917" height="49.017" transform="translate(352.007 192.199)" fill="#3f3d56"/>
        <rect id="Rectangle_16" data-name="Rectangle 16" width="236.917" height="49.017" transform="translate(352.007 290.234)" fill="#3f3d56"/>
        <rect id="Rectangle_17" data-name="Rectangle 17" width="236.917" height="49.017" transform="translate(352.007 388.269)" fill="#3f3d56"/>
        <rect id="Rectangle_18" data-name="Rectangle 18" width="236.917" height="49.017" transform="translate(352.007 486.304)" fill="#3f3d56"/>
        <rect id="Rectangle_19" data-name="Rectangle 19" width="1137" height="2" transform="translate(0 690.529)" fill="#3f3d56"/>
        <rect id="Rectangle_20" data-name="Rectangle 20" width="5.875" height="232.053" transform="translate(190.405 459.615)" fill="#3f3d56"/>
        <path id="Path_20" data-name="Path 20" d="M282,592.631c.374,81.143-56.715,147.187-56.715,147.187s-57.7-65.515-58.069-146.658,56.715-147.187,56.715-147.187S281.623,511.488,282,592.631Z" transform="translate(-31.5 -103.444)" fill="#ff1d79"/>
        <path id="Path_21" data-name="Path 21" d="M282,592.631c.374,81.143-56.715,147.187-56.715,147.187s-57.7-65.515-58.069-146.658,56.715-147.187,56.715-147.187S281.623,511.488,282,592.631Z" transform="translate(-31.5 -103.444)" opacity="0.1"/>
        <rect id="Rectangle_21" data-name="Rectangle 21" width="5.875" height="232.053" transform="translate(114.033 459.615)" fill="#3f3d56"/>
        <path id="Path_22" data-name="Path 22" d="M205.625,592.631C206,673.774,148.91,739.818,148.91,739.818S91.215,674.3,90.841,593.16s56.715-147.187,56.715-147.187S205.251,511.488,205.625,592.631Z" transform="translate(-31.5 -103.444)" fill="#ff1d79"/>
        <path id="Path_23" data-name="Path 23" d="M977.055,268.764c-46.277.213-83.944.9-83.944.9s44.774-59.307,83.776-37.334,83.807,36.562,83.807,36.562S1023.33,268.551,977.055,268.764Z" transform="translate(-31.5 -103.444)" fill="#f2f2f2"/>
        <path id="Path_24" data-name="Path 24" d="M206.055,382.764c-46.277.213-83.944.9-83.944.9s44.774-59.307,83.776-37.334,83.807,36.562,83.807,36.562S252.331,382.551,206.055,382.764Z" transform="translate(-31.5 -103.444)" fill="#f2f2f2"/>
        <path id="Path_25" data-name="Path 25" d="M374.055,144.764c-46.277.213-83.944.9-83.944.9s44.774-59.307,83.776-37.334,83.807,36.562,83.807,36.562S420.331,144.551,374.055,144.764Z" transform="translate(-31.5 -103.444)" fill="#f2f2f2"/>
        <rect id="Rectangle_22" data-name="Rectangle 22" width="5.875" height="232.053" transform="translate(1035.03 459.615)" fill="#3f3d56"/>
        <path id="Path_26" data-name="Path 26" d="M1126.63,592.631c.374,81.143-56.715,147.187-56.715,147.187s-57.7-65.515-58.069-146.658,56.715-147.187,56.715-147.187S1126.25,511.488,1126.63,592.631Z" transform="translate(-31.5 -103.444)" fill="#ff1d79"/>
        <path id="Path_27" data-name="Path 27" d="M824.667,547.629h59.289V533.318h32.711v14.311H978v63.378H916.667V690.74H883.956V611.007H824.667L794,576.251Z" fill="#3f3d56"/>
      </g>
      <text id="VENDI" transform="translate(848 590)" fill="#fff" font-size="30" font-family="Inter-Bold, Inter" font-weight="700"><tspan x="0" y="0">VENDI</tspan></text>
    </g>
  </g>
</svg>
