<svg xmlns="http://www.w3.org/2000/svg" width="80.198" height="83.685" viewBox="0 0 80.198 83.685">
  <g id="Group_2828" data-name="Group 2828" transform="translate(-254 -1367.74)">
    <path id="Path_12920" data-name="Path 12920" d="M27.023,277.45a1.744,1.744,0,0,0-1.9.377l-5.739,5.743-5.739-5.743a1.743,1.743,0,0,0-2.978,1.234v34.868a1.744,1.744,0,0,0,1.743,1.744H26.357a1.744,1.744,0,0,0,1.743-1.744V279.061A1.743,1.743,0,0,0,27.023,277.45Z" transform="translate(243.334 1135.751)" fill="#64b5f6"/>
    <path id="Path_12921" data-name="Path 12921" d="M148.618,192.5a1.744,1.744,0,0,0-2.465,0l-6.974,6.974a1.744,1.744,0,0,0-.513,1.234v41.842a1.744,1.744,0,0,0,1.743,1.743h13.947a1.744,1.744,0,0,0,1.743-1.743V200.711a1.743,1.743,0,0,0-.509-1.234Z" transform="translate(136.255 1207.128)" fill="#42a5f5"/>
    <path id="Path_12922" data-name="Path 12922" d="M276.618,149.835a1.744,1.744,0,0,0-2.465,0l-6.974,6.974a1.744,1.744,0,0,0-.513,1.234V206.86a1.744,1.744,0,0,0,1.743,1.743h13.947a1.744,1.744,0,0,0,1.743-1.743V158.044a1.743,1.743,0,0,0-.509-1.234Z" transform="translate(29.177 1242.821)" fill="#2196f3"/>
    <path id="Path_12923" data-name="Path 12923" d="M411.591,110.663l-3.487-3.487a1.744,1.744,0,0,0-1.234-.509h-3.487a1.743,1.743,0,0,0-1.234.509l-6.974,6.974a1.743,1.743,0,0,0-.509,1.234v55.79a1.744,1.744,0,0,0,1.743,1.744h13.947a1.744,1.744,0,0,0,1.743-1.743V111.9A1.743,1.743,0,0,0,411.591,110.663Z" transform="translate(-77.903 1278.507)" fill="#1976d2"/>
    <path id="Path_12924" data-name="Path 12924" d="M89.239,0H78.779a1.743,1.743,0,0,0-1.234,2.978l4,4L68.318,20.2l-5.739-5.743a1.744,1.744,0,0,0-2.465,0L47.4,27.173,41.657,21.43a1.744,1.744,0,0,0-2.465,0L19.5,41.121l-5.739-5.743A1.743,1.743,0,0,0,11.3,37.843l6.974,6.974a1.744,1.744,0,0,0,2.465,0L40.423,25.13l5.739,5.739a1.744,1.744,0,0,0,2.465,0L61.344,18.156,67.084,23.9a1.744,1.744,0,0,0,2.465,0L84.009,9.439l4,4a1.744,1.744,0,0,0,1.234.513,1.722,1.722,0,0,0,.666-.133A1.743,1.743,0,0,0,90.983,12.2V1.743A1.744,1.744,0,0,0,89.239,0Z" transform="translate(243.215 1367.74)" fill="#455a64"/>
  </g>
</svg>
