<svg xmlns="http://www.w3.org/2000/svg" width="78.824" height="77.728" viewBox="0 0 78.824 77.728">
  <g id="Group_2832" data-name="Group 2832" transform="translate(-1056.001 -1969.101)">
    <path id="Path_12962" data-name="Path 12962" d="M116.575,295.032l13.289-6.277a6.145,6.145,0,0,1,8.119,2.463l-27.012,17.473A18.56,18.56,0,0,1,99.383,310l-18.629-5.229a6.9,6.9,0,0,0-5.119.56l-3.9,2.084.525-19,.155,0A18.227,18.227,0,0,1,91.36,287.1l1.115.577a13.013,13.013,0,0,0,5.632,1.455l10.951.3a8.146,8.146,0,0,1,7.517,5.6Zm0,0" transform="translate(996.842 1736.431)" fill="#f0c69e"/>
    <path id="Path_12963" data-name="Path 12963" d="M172.986,29.414a7.085,7.085,0,0,1,0,8.048,7.105,7.105,0,0,0-1.255,4.032c0,.13,0,.263.012.393l0,.053a7.276,7.276,0,0,1-4.161,6.927l-.029.013a7.451,7.451,0,0,0-3.356,3.229l-.013.027a7.654,7.654,0,0,1-7.2,4l-.053,0a7.813,7.813,0,0,0-4.6,1.2,7.846,7.846,0,0,1-8.365,0,7.8,7.8,0,0,0-4.172-1.208c-.142,0-.286,0-.428.011l-.053,0a7.652,7.652,0,0,1-7.2-4l-.013-.027a7.456,7.456,0,0,0-3.356-3.229l-.029-.013a7.273,7.273,0,0,1-4.161-6.927l0-.053a7.113,7.113,0,0,0-1.244-4.426,7.078,7.078,0,0,1,0-8.048,7.105,7.105,0,0,0,1.255-4.032c0-.13,0-.263-.011-.393l0-.051a7.269,7.269,0,0,1,4.161-6.927l.029-.013a7.469,7.469,0,0,0,3.356-3.23l.013-.026a7.655,7.655,0,0,1,7.2-4l.053,0a7.83,7.83,0,0,0,4.6-1.2,7.849,7.849,0,0,1,8.365,0,7.832,7.832,0,0,0,4.6,1.2l.053,0a7.657,7.657,0,0,1,7.2,4l.013.026A7.463,7.463,0,0,0,167.557,18l.029.013a7.272,7.272,0,0,1,4.161,6.927l0,.051a7.106,7.106,0,0,0,1.243,4.426Zm-11.5,11.576c0-3.376-2.317-6.111-5.173-6.111s-5.174,2.735-5.174,6.111,2.315,6.112,5.174,6.112S161.489,44.367,161.489,40.99Zm-16.327-15.1c0-3.375-2.317-6.11-5.173-6.11s-5.174,2.735-5.174,6.11S137.132,32,139.988,32,145.161,29.262,145.161,25.885Zm0,0" transform="translate(956.045 1960.764)" fill="#ff1d79"/>
    <path id="Path_12964" data-name="Path 12964" d="M280.854,148.547c2.857,0,5.173,2.735,5.173,6.111s-2.317,6.112-5.173,6.112-5.174-2.735-5.174-6.112S278,148.547,280.854,148.547Zm0,0" transform="translate(831.507 1847.097)" fill="#ff1d79"/>
    <path id="Path_12965" data-name="Path 12965" d="M194.6,68.758c2.857,0,5.173,2.735,5.173,6.11s-2.317,6.113-5.173,6.113-5.174-2.736-5.174-6.113S191.747,68.758,194.6,68.758Zm0,0" transform="translate(901.429 1911.781)" fill="#ff1d79"/>
    <path id="Path_12966" data-name="Path 12966" d="M20.066,298.089l-.058,2.141L8,299.9l.725-26.353,12.01.329-.143,5.214Zm0,0" transform="translate(1048.515 1745.76)" fill="#1976d2" stroke="#1976d2" stroke-width="1"/>
    <path id="Path_12968" data-name="Path 12968" d="M205.213,88.513a1.513,1.513,0,0,0,2.086-.483l17.94-28.74a1.514,1.514,0,1,0-2.569-1.6l-17.94,28.74a1.514,1.514,0,0,0,.483,2.087Zm0,0" transform="translate(889.212 1921.345)" fill="#fff"/>
    <path id="Path_12969" data-name="Path 12969" d="M188.118,76.01c3.688,0,6.688-3.421,6.688-7.628s-3-7.625-6.688-7.625-6.688,3.42-6.688,7.625S184.43,76.01,188.118,76.01Zm0-12.223c2.017,0,3.659,2.062,3.659,4.6s-1.642,4.6-3.659,4.6-3.66-2.064-3.66-4.6S186.1,63.787,188.118,63.787Zm0,0" transform="translate(907.915 1918.267)" fill="#fff"/>
    <path id="Path_12970" data-name="Path 12970" d="M267.68,148.172c0,4.205,3,7.627,6.688,7.627s6.688-3.421,6.688-7.627-3-7.625-6.688-7.625S267.68,143.967,267.68,148.172Zm10.347,0c0,2.535-1.642,4.6-3.659,4.6s-3.66-2.064-3.66-4.6,1.642-4.6,3.66-4.6S278.027,145.637,278.027,148.172Zm0,0" transform="translate(837.992 1853.582)" fill="#fff"/>
  </g>
</svg>
