<svg xmlns="http://www.w3.org/2000/svg" width="87.828" height="87.828" viewBox="0 0 87.828 87.828">
  <g id="Group_2827" data-name="Group 2827" transform="translate(-855 -1363)">
    <path id="Path_12925" data-name="Path 12925" d="M2.656,30.4H85.172c1.467,0,2.656-2.026,2.656-4.2V2.656A2.656,2.656,0,0,0,85.172,0H2.656A2.656,2.656,0,0,0,0,2.656V26.2c0,2.56,1.189,4.2,2.656,4.2Z" transform="translate(855 1363)" fill="#ff1d79"/>
    <path id="Path_12926" data-name="Path 12926" d="M85.172,155.387H2.656A2.656,2.656,0,0,1,0,152.731v3.187a2.656,2.656,0,0,0,2.656,2.656H85.172a2.656,2.656,0,0,0,2.656-2.656v-3.187A2.656,2.656,0,0,1,85.172,155.387Z" transform="translate(855 1236.468)" fill="#ce0054"/>
    <path id="Path_12927" data-name="Path 12927" d="M377.4,43.206l-3.093-.449a1.514,1.514,0,0,1-1.14-.828l-1.383-2.8a1.514,1.514,0,0,0-2.715,0l-1.383,2.8a1.514,1.514,0,0,1-1.14.828l-3.093.449a1.514,1.514,0,0,0-.839,2.582l2.238,2.181a1.514,1.514,0,0,1,.435,1.34l-.446,2.6h11.17l-.446-2.6a1.514,1.514,0,0,1,.435-1.34l2.238-2.181A1.514,1.514,0,0,0,377.4,43.206Z" transform="translate(554.97 1331.285)" fill="#ffe07d"/>
    <path id="Path_12928" data-name="Path 12928" d="M193.007,175.4a3.37,3.37,0,0,0-3.37,3.37v-2.316a3.37,3.37,0,1,0-6.74,0v-2.316a3.37,3.37,0,0,0-6.74,0V159.054a3.37,3.37,0,0,0-6.74,0V189.18h-.05l-5.423-6.078a8.945,8.945,0,0,0-6.675-2.99,1.731,1.731,0,0,0-1.52,2.559l5.289,9.716a24.973,24.973,0,0,0,4.72,6.153L171.8,204.3v1.491l9.8,1.544,9.8-1.544V204.3s4.964-5.235,4.964-17.411v-8.112A3.37,3.37,0,0,0,193.007,175.4Z" transform="translate(726.146 1234.022)" fill="#f0c69e"/>
    <g id="Group_2820" data-name="Group 2820" transform="translate(897.951 1439.809)">
      <path id="Path_12929" data-name="Path 12929" d="M250.386,450.95l9.761,1.544,9.848-1.544v-3.187H250.386Z" transform="translate(-250.386 -447.763)" fill="#e6ba94"/>
    </g>
    <path id="Path_12930" data-name="Path 12930" d="M223.031,43.206l-3.093-.449a1.514,1.514,0,0,1-1.14-.828l-1.383-2.8a1.514,1.514,0,0,0-2.715,0l-1.383,2.8a1.514,1.514,0,0,1-1.14.828l-3.092.449a1.514,1.514,0,0,0-.839,2.582l2.238,2.181a1.514,1.514,0,0,1,.435,1.34l-.446,2.6h11.17l-.446-2.6a1.514,1.514,0,0,1,.435-1.34l2.238-2.181A1.514,1.514,0,0,0,223.031,43.206Z" transform="translate(682.856 1331.285)" fill="#ffe07d"/>
    <path id="Path_12931" data-name="Path 12931" d="M68.665,43.206l-3.092-.449a1.514,1.514,0,0,1-1.14-.828l-1.383-2.8a1.514,1.514,0,0,0-2.715,0l-1.383,2.8a1.514,1.514,0,0,1-1.14.828l-3.093.449a1.514,1.514,0,0,0-.839,2.582l2.238,2.181a1.514,1.514,0,0,1,.435,1.34l-.446,2.6h11.17l-.446-2.6a1.514,1.514,0,0,1,.435-1.34L69.5,45.788A1.514,1.514,0,0,0,68.665,43.206Z" transform="translate(810.743 1331.285)" fill="#ffe07d"/>
    <path id="Path_12932" data-name="Path 12932" d="M238,472.531h20.94c.943,0,1.708-1.232,1.708-3.252v-1.228a1.708,1.708,0,0,0-1.708-1.708H238a1.708,1.708,0,0,0-1.708,1.708v1.228C236.292,471.259,237.057,472.531,238,472.531Z" transform="translate(659.241 976.653)" fill="#e5ecf7"/>
    <path id="Path_12933" data-name="Path 12933" d="M258.94,485.168H238a1.708,1.708,0,0,1-1.708-1.708v3.187A1.708,1.708,0,0,0,238,488.356h20.94a1.708,1.708,0,0,0,1.708-1.708V483.46A1.708,1.708,0,0,1,258.94,485.168Z" transform="translate(659.241 962.472)" fill="#1976d2"/>
    <g id="Group_2822" data-name="Group 2822" transform="translate(866.744 1380.455)">
      <g id="Group_2821" data-name="Group 2821">
        <path id="Path_12934" data-name="Path 12934" d="M79.74,104.495l-4.88-2.566a1.513,1.513,0,0,0-1.409,0l-4.88,2.566-.082.48a1.514,1.514,0,0,0,2.2,1.6l2.766-1.454a1.513,1.513,0,0,1,1.409,0l2.766,1.454a1.514,1.514,0,0,0,2.2-1.6Z" transform="translate(-68.465 -101.755)" fill="#ffd064"/>
      </g>
    </g>
    <g id="Group_2824" data-name="Group 2824" transform="translate(893.224 1380.455)">
      <g id="Group_2823" data-name="Group 2823">
        <path id="Path_12935" data-name="Path 12935" d="M234.106,104.495l-4.88-2.566a1.514,1.514,0,0,0-1.409,0l-4.88,2.566-.082.48a1.514,1.514,0,0,0,2.2,1.6l2.766-1.454a1.514,1.514,0,0,1,1.409,0l2.766,1.454a1.514,1.514,0,0,0,2.2-1.6Z" transform="translate(-222.831 -101.755)" fill="#ffd064"/>
      </g>
    </g>
    <g id="Group_2826" data-name="Group 2826" transform="translate(919.704 1380.455)">
      <g id="Group_2825" data-name="Group 2825">
        <path id="Path_12936" data-name="Path 12936" d="M388.473,104.495l-4.88-2.566a1.514,1.514,0,0,0-1.409,0l-4.88,2.566-.082.48a1.514,1.514,0,0,0,2.2,1.6l2.766-1.454a1.514,1.514,0,0,1,1.409,0l2.766,1.454a1.514,1.514,0,0,0,2.2-1.6Z" transform="translate(-377.198 -101.755)" fill="#ffd064"/>
      </g>
    </g>
  </g>
</svg>
