<svg xmlns="http://www.w3.org/2000/svg" width="82.01" height="72.517" viewBox="0 0 82.01 72.517">
  <g id="Group_2831" data-name="Group 2831" transform="translate(-255.817 -1670)">
    <path id="Path_12937" data-name="Path 12937" d="M74.969,85.239a5.078,5.078,0,0,0-1.96-.1c-.98.261-1.83,1.634-2.875,1.634s-1.928-1.372-2.875-1.634c-1.013-.261-2.451.49-3.333-.033s-.948-2.124-1.666-2.875l-.033-.033H2.5l10.423,36.235H84.51Z" transform="translate(253.317 1609.51)" fill="#ff1d79"/>
    <g id="Group_2829" data-name="Group 2829" transform="translate(272.464 1709.712)">
      <path id="Path_12938" data-name="Path 12938" d="M65.653,140.6a5.986,5.986,0,0,0-2.352-2.418,6.736,6.736,0,0,0-6.665,0,5.864,5.864,0,0,0-2.352,2.451,7.683,7.683,0,0,0,0,6.959,6.517,6.517,0,0,0,2.352,2.451,6.736,6.736,0,0,0,6.665,0,6.673,6.673,0,0,0,2.352-2.418A7.621,7.621,0,0,0,65.653,140.6Zm-2.614,5.62a3.255,3.255,0,0,1-3.071,1.8,3.894,3.894,0,0,1-1.83-.457,3.268,3.268,0,0,1-1.242-1.34,5.151,5.151,0,0,1,0-4.28,3.268,3.268,0,0,1,1.242-1.34,3.828,3.828,0,0,1,3.659,0,3.268,3.268,0,0,1,1.242,1.34A4.918,4.918,0,0,1,63.04,146.22Z" transform="translate(-53.45 -137.3)" fill="#edf4fc"/>
      <path id="Path_12939" data-name="Path 12939" d="M102.817,137.8h-6.7a.725.725,0,0,0-.719.719v11.86a.725.725,0,0,0,.719.719h1.536a.725.725,0,0,0,.719-.719v-4.607h3.692a.725.725,0,0,0,.719-.719v-1.209a.725.725,0,0,0-.719-.719H98.373v-2.679h4.476a.725.725,0,0,0,.719-.719v-1.209a.778.778,0,0,0-.751-.719Z" transform="translate(-81.694 -137.637)" fill="#edf4fc"/>
      <path id="Path_12940" data-name="Path 12940" d="M128.917,137.8h-6.7a.725.725,0,0,0-.719.719v11.86a.725.725,0,0,0,.719.719h1.536a.725.725,0,0,0,.719-.719v-4.607h3.692a.725.725,0,0,0,.719-.719v-1.209a.725.725,0,0,0-.719-.719h-3.692v-2.679h4.476a.725.725,0,0,0,.719-.719v-1.209a.778.778,0,0,0-.752-.719Z" transform="translate(-99.266 -137.637)" fill="#edf4fc"/>
      <path id="Path_12941" data-name="Path 12941" d="M154.853,140.447a.725.725,0,0,0,.719-.719v-1.209a.725.725,0,0,0-.719-.719h-6.535a.725.725,0,0,0-.719.719v11.86a.725.725,0,0,0,.719.719h6.535a.725.725,0,0,0,.719-.719v-1.242a.725.725,0,0,0-.719-.719h-4.313v-2.712h3.79a.725.725,0,0,0,.719-.719v-1.176a.725.725,0,0,0-.719-.719h-3.79v-2.647Z" transform="translate(-116.838 -137.637)" fill="#edf4fc"/>
      <path id="Path_12942" data-name="Path 12942" d="M182.945,149.987l-2.679-4.051a3.839,3.839,0,0,0,2.712-3.888,4.019,4.019,0,0,0-1.242-3.071,4.9,4.9,0,0,0-3.529-1.176h-3.888a.725.725,0,0,0-.719.719v11.86a.725.725,0,0,0,.719.719h1.536a.725.725,0,0,0,.719-.719v-4.15h.555L180,150.739a.73.73,0,0,0,.588.327h1.732a.725.725,0,0,0,.719-.719A.468.468,0,0,0,182.945,149.987Zm-4.836-6.273h-1.536v-3.169h1.536c1.666,0,1.9.751,1.9,1.568S179.775,143.714,178.109,143.714Z" transform="translate(-134.343 -137.637)" fill="#edf4fc"/>
    </g>
    <path id="Path_12943" data-name="Path 12943" d="M176.7,193.1l4.15,14.572L201.793,193.1Z" transform="translate(136.034 1534.844)" fill="#e4005d"/>
    <path id="Path_12944" data-name="Path 12944" d="M117.731,45.153a3.239,3.239,0,0,1-2.614-2.549c0-.033-.033-.065-.065-.033a.032.032,0,0,0-.033.033,3.239,3.239,0,0,1-2.614,2.549c-.033,0-.065.033-.033.065a.032.032,0,0,0,.033.033,3.239,3.239,0,0,1,2.614,2.549c0,.033.033.065.065.033a.032.032,0,0,0,.033-.033,3.239,3.239,0,0,1,2.614-2.549.07.07,0,0,0,.065-.065C117.8,45.153,117.763,45.153,117.731,45.153Z" transform="translate(179.353 1636.199)" fill="#f5c84c"/>
    <path id="Path_12945" data-name="Path 12945" d="M153.178,209.2h-.719v-.719a.98.98,0,1,0-1.96,0v.719h-.719a.98.98,0,0,0,0,1.96h.719v.719a.98.98,0,1,0,1.96,0v-.719h.719a.98.98,0,1,0,0-1.96Z" transform="translate(154.818 1525.149)" fill="#70d6f9"/>
    <circle id="Ellipse_455" data-name="Ellipse 455" cx="1.046" cy="1.046" r="1.046" transform="translate(258.463 1724.873)" fill="#f5c84c"/>
    <circle id="Ellipse_456" data-name="Ellipse 456" cx="1.046" cy="1.046" r="1.046" transform="translate(286.563 1684.358)" fill="#fc657e"/>
    <circle id="Ellipse_457" data-name="Ellipse 457" cx="1.046" cy="1.046" r="1.046" transform="translate(296.364 1731.734)" fill="#87d147"/>
    <g id="Group_2830" data-name="Group 2830" transform="translate(272.248 1696.798)">
      <path id="Path_12946" data-name="Path 12946" d="M59.392,103.565a3.325,3.325,0,0,0-1.078-.948,11.946,11.946,0,0,0-1.5-.588A11.184,11.184,0,0,1,55.7,101.6a1.408,1.408,0,0,1-.555-.425.979.979,0,0,1-.2-.588.855.855,0,0,1,.294-.719,1.231,1.231,0,0,1,.882-.261,1.27,1.27,0,0,1,1.372,1.013.452.452,0,0,0,.425.359H59.2a.433.433,0,0,0,.425-.425v-.065a3.028,3.028,0,0,0-1.078-1.96,3.65,3.65,0,0,0-2.451-.751,4.255,4.255,0,0,0-1.7.327,2.723,2.723,0,0,0-1.176,1.013,2.76,2.76,0,0,0-.425,1.5,2.551,2.551,0,0,0,.457,1.6,2.937,2.937,0,0,0,1.078.915,8.993,8.993,0,0,0,1.47.555c.392.131.751.261,1.144.425a1.6,1.6,0,0,1,.588.457,1.19,1.19,0,0,1-.1,1.438,1.2,1.2,0,0,1-.915.294,1.771,1.771,0,0,1-.817-.2,1.107,1.107,0,0,1-.49-.457,1.259,1.259,0,0,1-.2-.588.426.426,0,0,0-.425-.392H53.314a.433.433,0,0,0-.425.425v.033a2.628,2.628,0,0,0,.588,1.536,3.158,3.158,0,0,0,1.307,1.046,4.562,4.562,0,0,0,3.627-.033,2.934,2.934,0,0,0,1.111-1.078,3.025,3.025,0,0,0,.359-1.438,2.96,2.96,0,0,0-.49-1.6Z" transform="translate(-52.787 -97.772)"/>
      <path id="Path_12947" data-name="Path 12947" d="M82.745,99.25a3.874,3.874,0,0,0-2.679-.85H77.125a.433.433,0,0,0-.425.425v9.247a.433.433,0,0,0,.425.425h1.209a.433.433,0,0,0,.425-.425v-3.3h1.307a3.841,3.841,0,0,0,2.647-.85,2.906,2.906,0,0,0,.948-2.352A3.03,3.03,0,0,0,82.745,99.25Zm-1.5,3.333a1.811,1.811,0,0,1-1.274.327H78.758V100.23h1.209a1.923,1.923,0,0,1,1.274.327,1.3,1.3,0,0,1,.359,1.013A1.666,1.666,0,0,1,81.242,102.582Z" transform="translate(-68.887 -98.195)"/>
      <path id="Path_12948" data-name="Path 12948" d="M105.222,100.13a.433.433,0,0,0,.425-.425v-.98a.433.433,0,0,0-.425-.425h-5.1a.433.433,0,0,0-.425.425V108a.433.433,0,0,0,.425.425h5.1a.433.433,0,0,0,.425-.425v-.98a.432.432,0,0,0-.425-.425h-3.5v-2.385h3.1a.433.433,0,0,0,.425-.425v-.915a.432.432,0,0,0-.425-.425h-3.1v-2.32Z" transform="translate(-84.372 -98.128)"/>
      <path id="Path_12949" data-name="Path 12949" d="M128.114,104.267H126.84a.425.425,0,0,0-.392.261,2.7,2.7,0,0,1-.98,1.274,2.779,2.779,0,0,1-1.7.457,2.509,2.509,0,0,1-2.352-1.47,3.394,3.394,0,0,1-.359-1.7,4.02,4.02,0,0,1,.359-1.732,2.542,2.542,0,0,1,2.352-1.47,2.9,2.9,0,0,1,1.7.457,2.55,2.55,0,0,1,.98,1.274.425.425,0,0,0,.392.261h1.274a.433.433,0,0,0,.425-.425.247.247,0,0,0-.033-.131,4.837,4.837,0,0,0-1.666-2.516,5.079,5.079,0,0,0-3.071-.915,5.156,5.156,0,0,0-2.516.653,4.755,4.755,0,0,0-1.732,1.862,5.952,5.952,0,0,0,0,5.293,4.447,4.447,0,0,0,1.732,1.83,4.535,4.535,0,0,0,2.516.653,5.213,5.213,0,0,0,3.071-.915,4.594,4.594,0,0,0,1.666-2.516.42.42,0,0,0-.294-.523.12.12,0,0,1-.1.033Z" transform="translate(-97.299 -97.854)"/>
      <path id="Path_12950" data-name="Path 12950" d="M151.117,98.3h1.209a.432.432,0,0,1,.425.425V108a.433.433,0,0,1-.425.425h-1.209a.433.433,0,0,1-.425-.425V98.725A.394.394,0,0,1,151.117,98.3Z" transform="translate(-118.701 -98.128)"/>
      <path id="Path_12951" data-name="Path 12951" d="M167.017,108.177l-3.431-9.083a.458.458,0,0,0-.392-.294h-1.34a.411.411,0,0,0-.392.294l-3.431,9.083a.423.423,0,0,0,.261.555.245.245,0,0,0,.163.033h1.274a.362.362,0,0,0,.392-.294l.686-1.862h3.463l.686,1.862a.458.458,0,0,0,.392.294h1.274a.433.433,0,0,0,.425-.425A.3.3,0,0,0,167.017,108.177Zm-5.554-3.333,1.078-2.973,1.078,2.973Z" transform="translate(-123.623 -98.464)"/>
      <path id="Path_12952" data-name="Path 12952" d="M191.7,106.632h-2.843V98.725a.432.432,0,0,0-.425-.425h-1.209a.432.432,0,0,0-.425.425V108a.433.433,0,0,0,.425.425H191.7a.433.433,0,0,0,.425-.425v-.948A.412.412,0,0,0,191.7,106.632Z" transform="translate(-143.014 -98.128)"/>
    </g>
    <path id="Path_12953" data-name="Path 12953" d="M194.6,35.491c.261-.98,1.634-1.83,1.634-2.875s-1.372-1.928-1.634-2.875c-.261-1.013.49-2.45-.033-3.333s-2.124-.948-2.875-1.666-.784-2.352-1.666-2.875-2.32.229-3.333-.033c-.98-.261-1.83-1.634-2.875-1.634s-1.928,1.372-2.875,1.634c-1.013.261-2.451-.49-3.333.033s-.948,2.124-1.666,2.875-2.352.784-2.875,1.666.229,2.32-.033,3.333c-.261.98-1.634,1.83-1.634,2.875s1.372,1.928,1.634,2.875c.261,1.013-.49,2.45.033,3.333s2.124.948,2.875,1.666.784,2.352,1.666,2.875,2.32-.229,3.333.033c.98.261,1.83,1.634,2.875,1.634s1.928-1.372,2.875-1.634c1.013-.261,2.451.49,3.333-.033s.948-2.124,1.666-2.875,2.352-.784,2.875-1.666C195.088,37.909,194.337,36.471,194.6,35.491Z" transform="translate(139.602 1651.252)" fill="#f5c84c"/>
    <path id="Path_12954" data-name="Path 12954" d="M203.818,44.235c-.457-.2-.948-.359-1.438-.523v-3.3a1.716,1.716,0,0,1,1.144,1.34.141.141,0,0,0,.131.131h1.438c.065,0,.163-.065.163-.131v-.033a3.167,3.167,0,0,0-2.875-2.679V37.9a.211.211,0,0,0-.2-.2h-.817a.211.211,0,0,0-.2.2v1.078c-1.862.131-3.071,1.209-3.071,2.843,0,1.928,1.34,2.516,3.071,3.071v3.463a1.942,1.942,0,0,1-1.34-1.6.141.141,0,0,0-.131-.131h-1.4a.217.217,0,0,0-.163.131,3.4,3.4,0,0,0,3.039,2.941v1.046a.211.211,0,0,0,.2.2h.817a.211.211,0,0,0,.2-.2v-.98a2.941,2.941,0,0,0,3.071-2.908,2.642,2.642,0,0,0-1.634-2.614ZM201.2,43.32a3.441,3.441,0,0,1-.948-.555,1.272,1.272,0,0,1-.425-1.046,1.372,1.372,0,0,1,1.372-1.438Zm1.176,5.064V45.248c.85.327,1.372.719,1.372,1.6A1.482,1.482,0,0,1,202.38,48.384Z" transform="translate(121.626 1639.47)"/>
    <path id="Path_12959" data-name="Path 12959" d="M162.091,20.41l-2.418-4.248a.813.813,0,1,0-1.4.817l2.418,4.215a.806.806,0,0,0,1.111.294A.762.762,0,0,0,162.091,20.41Z" transform="translate(148.519 1654.244)"/>
    <path id="Path_12960" data-name="Path 12960" d="M148.394,33.919l-4.215-2.45a.813.813,0,1,0-.817,1.4l4.215,2.45a.813.813,0,0,0,.817-1.4Z" transform="translate(158.753 1643.741)"/>
    <path id="Path_12961" data-name="Path 12961" d="M143.285,52.5h-4.868a.817.817,0,0,0,0,1.634h4.868a.809.809,0,0,0,.817-.817A.83.83,0,0,0,143.285,52.5Z" transform="translate(162.358 1629.506)"/>
  </g>
</svg>
