<svg xmlns="http://www.w3.org/2000/svg" width="522.907" height="491.132" viewBox="0 0 522.907 491.132">
  <g id="Group_3001" data-name="Group 3001" transform="translate(-858.922 -261)">
    <g id="Group_2778" data-name="Group 2778" transform="translate(73.922 48)">
      <path id="Path_12310" data-name="Path 12310" d="M401.968,102.976q-6.073-2.01-12.271-3.605C335.869,85.53,281.338,93.466,234.344,123c-43.827,27.542-78.042,67.7-111.726,106.329-29.6,33.946-52.755,76.083-48.858,122.542,5.125,61.1,52.091,110.128,113.614,115.3,28.868,2.429,58.51-6.03,83.461-20.376,21.929-12.61,40.565-30.841,64.261-40.358,26.949-10.824,56.95-6.843,84.226.717,22.577,6.258,45.221,14.134,68.647,13.751,41.72-.68,67.3-37.792,76.582-74.773,26.69-106.348-64.529-208.85-159.453-242.088Q403.538,103.5,401.968,102.976Z" transform="translate(738.642 132.928)" fill="#ced5e4"/>
      <path id="Path_12311" data-name="Path 12311" d="M449.424,479.442a66,66,0,0,1-25.935-5.306c-18.172-7.714-33.658-20.716-48.633-33.292-2.806-2.356-5.709-4.792-8.574-7.149-27.8-22.856-52.139-33.908-76.591-34.784-15.475-.561-30.815,2.636-45.649,5.722a297.836,297.836,0,0,1-29.437,5.1c-30.789,3.217-60.851-2.2-84.651-15.251A123.631,123.631,0,0,1,73.5,329.237a128.079,128.079,0,0,1-.7-86.445c13.259-38.207,45.04-69.257,94.457-92.285l5.161-2.407c44.63-20.819,90.779-42.348,140.141-49.472a195.127,195.127,0,0,1,80.115,4.811,200.93,200.93,0,0,1,71.6,36.649c3.326,2.63,6.609,5.417,9.763,8.282q1.226,1.111,2.431,2.245a263.324,263.324,0,0,1,47.872,61.638,268.943,268.943,0,0,1,28.753,74.873c5.838,27.227,6.622,53.526,2.334,78.169a158.981,158.981,0,0,1-31.4,71.512c-12.659,16.189-28.512,29-44.635,36.067A74.524,74.524,0,0,1,449.424,479.442ZM286.116,398.5q1.8,0,3.589.063c24.529.879,48.932,11.957,76.794,34.862,2.869,2.359,5.771,4.794,8.577,7.152,14.957,12.559,30.422,25.546,48.548,33.239,17.531,7.441,36.765,7,55.627-1.262,16.071-7.044,31.877-19.815,44.5-35.964a158.6,158.6,0,0,0,31.334-71.358c4.281-24.6,3.5-50.856-2.33-78.038a268.653,268.653,0,0,0-28.716-74.776,262.925,262.925,0,0,0-47.81-61.555q-1.2-1.133-2.426-2.242h0c-3.149-2.858-6.428-5.639-9.745-8.265a200.607,200.607,0,0,0-71.475-36.588,194.851,194.851,0,0,0-79.975-4.8c-49.312,7.118-95.437,28.635-140.044,49.443l-5.161,2.407c-49.331,22.987-81.051,53.97-94.279,92.087a127.734,127.734,0,0,0,.7,86.213,123.29,123.29,0,0,0,56.3,65.059c23.74,13.019,53.726,18.423,84.451,15.212a298.092,298.092,0,0,0,29.4-5.093C257.681,401.444,271.822,398.5,286.116,398.5Z" transform="translate(735.784 134.328)" fill="#637ed3"/>
      <rect id="Rectangle_738" data-name="Rectangle 738" width="209.509" height="405.984" rx="15.453" transform="translate(949.616 213)" fill="#4a4a4a"/>
      <path id="Path_12319" data-name="Path 12319" d="M371.966,104.018v359.76A13.52,13.52,0,0,1,358.458,477.3h-164.8a13.52,13.52,0,0,1-13.508-13.522V104.018A13.508,13.508,0,0,1,193.656,90.51h164.8c.206,0,.411,0,.617.014A13.5,13.5,0,0,1,371.966,104.018Z" transform="translate(778.314 132.089)" fill="#ebf3ff"/>
      <path id="Path_12320" data-name="Path 12320" d="M296.989,103.8H232.258a23.182,23.182,0,0,1-21.327-14.1H318.316A23.181,23.181,0,0,1,296.989,103.8Z" transform="translate(789.747 131.792)" fill="#4a4a4a"/>
      <g id="Group_2777" data-name="Group 2777" transform="translate(971.618 289.224)">
        <g id="Group_2774" data-name="Group 2774">
          <rect id="Rectangle_677" data-name="Rectangle 677" width="72.595" height="31.287" transform="translate(6.158 20.893)" fill="#b0bec5"/>
          <rect id="Rectangle_678" data-name="Rectangle 678" width="80.009" height="3.556" transform="translate(2.451 19.51)" fill="#414141"/>
          <path id="Path_12230" data-name="Path 12230" d="M218.738,200.646H138.73l11.121-16h57.767Z" transform="translate(-136.279 -181.137)" fill="#707070"/>
          <path id="Path_12231" data-name="Path 12231" d="M243.238,231.869H287.46V202.583l-22.1-16.728L243.238,202.6Z" transform="translate(-198.909 -181.862)" fill="#f6f6f6"/>
          <rect id="Rectangle_679" data-name="Rectangle 679" width="24.16" height="23.081" transform="translate(13.195 29.099)" fill="#455a64"/>
          <path id="Path_12232" data-name="Path 12232" d="M189.7,248.508H165.542V271.59Z" transform="translate(-152.347 -219.41)" fill="#546e7a"/>
          <g id="Group_2666" data-name="Group 2666" transform="translate(60.137 13.603)">
            <rect id="Rectangle_680" data-name="Rectangle 680" width="12.605" height="9.109" fill="#cfd8dc"/>
            <rect id="Rectangle_681" data-name="Rectangle 681" width="12.605" height="1.424" transform="translate(0 7.685)" fill="#455a64"/>
            <path id="Path_12233" data-name="Path 12233" d="M282.689,217.541v-7.7h7.663Z" transform="translate(-282.689 -209.838)" fill="#eceff1"/>
          </g>
          <g id="Group_2667" data-name="Group 2667" transform="translate(47.899 30.149)">
            <rect id="Rectangle_682" data-name="Rectangle 682" width="7.663" height="11.904" fill="#cfd8dc"/>
            <path id="Path_12234" data-name="Path 12234" d="M252.146,258.832v-7.7h7.663Z" transform="translate(-252.146 -251.13)" fill="#eceff1"/>
            <rect id="Rectangle_683" data-name="Rectangle 683" width="7.663" height="1.424" transform="translate(0 10.48)" fill="#455a64"/>
          </g>
          <g id="Group_2668" data-name="Group 2668" transform="translate(58.777 30.149)">
            <rect id="Rectangle_684" data-name="Rectangle 684" width="7.663" height="11.904" fill="#cfd8dc"/>
            <path id="Path_12235" data-name="Path 12235" d="M279.294,258.832v-7.7h7.663Z" transform="translate(-279.294 -251.13)" fill="#eceff1"/>
            <rect id="Rectangle_685" data-name="Rectangle 685" width="7.663" height="1.424" transform="translate(0 10.48)" fill="#455a64"/>
          </g>
          <rect id="Rectangle_686" data-name="Rectangle 686" width="9.279" height="16.044" transform="translate(74.994 33.963)" fill="#455a64"/>
          <rect id="Rectangle_687" data-name="Rectangle 687" width="5.652" height="10.37" transform="translate(76.808 36.101)" fill="#cfd8dc"/>
          <path id="Path_12236" data-name="Path 12236" d="M270.065,183.691l-1.633-2.637-25.194,19.069V204Z" transform="translate(-198.909 -178.985)" fill="#eceff1"/>
          <path id="Path_12237" data-name="Path 12237" d="M261.637,175.891,235.855,195.4v5.587l25.783-19.515,25.756,19.5v-5.585Z" transform="translate(-194.485 -175.891)" fill="#cfd8dc"/>
          <rect id="Rectangle_688" data-name="Rectangle 688" width="94.077" height="2.173" transform="translate(0 50.007)" fill="#414141" stroke="#414141" stroke-width="1"/>
        </g>
        <rect id="Rectangle_743" data-name="Rectangle 743" width="170" height="25" transform="translate(0.46 110.776)" fill="#dbdbdb"/>
        <g id="Group_2775" data-name="Group 2775" transform="translate(0.876 72.72)">
          <g id="Rectangle_689" data-name="Rectangle 689" transform="translate(-0.417 0.056)" fill="#0b469b" stroke="#0b469b" stroke-width="1">
            <rect width="63" height="21" rx="3" stroke="none"/>
            <rect x="0.5" y="0.5" width="62" height="20" rx="2.5" fill="none"/>
          </g>
          <g id="Rectangle_690" data-name="Rectangle 690" transform="translate(70.583 0.056)" fill="#ff1d79" stroke="#ff1d79" stroke-width="1">
            <rect width="62" height="21" rx="3" stroke="none"/>
            <rect x="0.5" y="0.5" width="61" height="20" rx="2.5" fill="none"/>
          </g>
          <text id="VENDI" transform="translate(29.583 14.056)" fill="#fff" font-size="9" font-family="Poppins-SemiBold, Poppins" font-weight="600"><tspan x="-13.378" y="0">VENDI</tspan></text>
          <text id="AFFITTA" transform="translate(100.583 14.056)" fill="#fff" font-size="9" font-family="Poppins-SemiBold, Poppins" font-weight="600"><tspan x="-17.658" y="0">AFFITTA</tspan></text>
        </g>
        <g id="Group_2776" data-name="Group 2776" transform="translate(0 199.76)">
          <rect id="Rectangle_692" data-name="Rectangle 692" width="170" height="88" transform="translate(0.459 0.016)" fill="#dbdbdb"/>
          <rect id="Rectangle_693" data-name="Rectangle 693" width="170" height="88" transform="translate(0.459 0.016)" fill="#dbdbdb"/>
        </g>
        <rect id="Rectangle_694" data-name="Rectangle 694" width="56" height="45" transform="translate(0.46 144.776)" fill="#dbdbdb"/>
        <rect id="Rectangle_694-2" data-name="Rectangle 694" width="57" height="45" transform="translate(56.46 144.776)" fill="#dbdbdb"/>
        <rect id="Rectangle_694-3" data-name="Rectangle 694" width="56" height="45" transform="translate(114.46 144.776)" fill="#dbdbdb"/>
      </g>
      <g id="Group_2745" data-name="Group 2745" transform="translate(785 264.389)">
        <path id="Path_12313" data-name="Path 12313" d="M96.118,195.482a4.111,4.111,0,1,1,4.11-4.111A4.115,4.115,0,0,1,96.118,195.482Zm0-7.536a3.425,3.425,0,1,0,3.424,3.424A3.429,3.429,0,0,0,96.118,187.946Z" transform="translate(-39.422 -96.366)" fill="#637ed3"/>
        <path id="Path_12314" data-name="Path 12314" d="M380.786,129.2a4.111,4.111,0,1,1,4.11-4.11A4.115,4.115,0,0,1,380.786,129.2Zm0-7.536a3.425,3.425,0,1,0,3.424,3.426A3.43,3.43,0,0,0,380.786,121.668Z" transform="translate(66.305 -120.982)" fill="#637ed3"/>
        <path id="Path_12315" data-name="Path 12315" d="M426.466,331.262a4.111,4.111,0,1,1,4.112-4.111A4.115,4.115,0,0,1,426.466,331.262Zm0-7.536a3.425,3.425,0,1,0,3.426,3.424A3.428,3.428,0,0,0,426.466,323.726Z" transform="translate(83.271 -45.937)" fill="#637ed3"/>
        <path id="Path_12316" data-name="Path 12316" d="M118.071,298.108a4.111,4.111,0,1,1,4.11-4.112A4.115,4.115,0,0,1,118.071,298.108Zm0-7.536A3.425,3.425,0,1,0,121.5,294,3.429,3.429,0,0,0,118.071,290.572Z" transform="translate(-31.268 -58.25)" fill="#637ed3"/>
        <path id="Path_12317" data-name="Path 12317" d="M57.774,280.667a4.111,4.111,0,1,1,4.11-4.111A4.116,4.116,0,0,1,57.774,280.667Zm0-7.536a3.425,3.425,0,1,0,3.424,3.424A3.429,3.429,0,0,0,57.774,273.131Z" transform="translate(-53.663 -64.728)" fill="#637ed3"/>
        <path id="Path_12318" data-name="Path 12318" d="M429.214,188.273a4.111,4.111,0,1,1,4.111-4.111A4.115,4.115,0,0,1,429.214,188.273Zm0-7.536a3.425,3.425,0,1,0,3.426,3.424A3.429,3.429,0,0,0,429.214,180.737Z" transform="translate(84.291 -99.044)" fill="#637ed3"/>
      </g>
      <g id="Group_2751" data-name="Group 2751" transform="translate(968.781 226.784)">
        <g id="Group_2747" data-name="Group 2747" transform="translate(0 1.929)">
          <path id="Path_12321" data-name="Path 12321" d="M190.729,101.252h-1.16v-5.01l-1.381.838-.516-.791,2.017-1.234h1.04Z" transform="translate(-187.672 -94.936)" fill="#607bff"/>
          <path id="Path_12322" data-name="Path 12322" d="M195.047,96.715c0,1.049-.6,1.813-2.514,3.636h2.652l-.129.931H191.2v-.867c2.117-2.153,2.633-2.733,2.633-3.608a.835.835,0,0,0-.894-.9,1.477,1.477,0,0,0-1.2.653l-.717-.571a2.422,2.422,0,0,1,2.008-1.012A1.792,1.792,0,0,1,195.047,96.715Z" transform="translate(-186.427 -94.965)" fill="#607bff"/>
          <path id="Path_12323" data-name="Path 12323" d="M196.466,96.942a.75.75,0,0,1-.756.746.745.745,0,1,1,.756-.746Zm0,3.279a.75.75,0,0,1-.756.745.745.745,0,1,1,.756-.745Z" transform="translate(-184.96 -94.512)" fill="#607bff"/>
          <path id="Path_12324" data-name="Path 12324" d="M201.426,99.867h-.745v1.418h-1.152V99.867H196.9v-.81l1.8-4.088,1,.377-1.584,3.619h1.418l.119-1.557h1.023v1.557h.745Z" transform="translate(-184.246 -94.968)" fill="#607bff"/>
          <path id="Path_12325" data-name="Path 12325" d="M204.679,95.93H202.36v1.537a2.1,2.1,0,0,1,.938-.23,1.779,1.779,0,0,1,1.777,2,2.118,2.118,0,0,1-2.311,2.153,2.507,2.507,0,0,1-1.951-.874l.672-.627a1.613,1.613,0,0,0,1.252.59,1.087,1.087,0,0,0,1.123-1.243c0-.857-.424-1.152-.994-1.152a1.636,1.636,0,0,0-.8.211h-.839V95.055h3.593Z" transform="translate(-182.791 -94.936)" fill="#607bff"/>
        </g>
        <g id="Group_2750" data-name="Group 2750" transform="translate(145.978)">
          <g id="Group_2748" data-name="Group 2748" transform="translate(0 1.654)">
            <path id="Path_12326" data-name="Path 12326" d="M298.665,99.614c0,1.013-.893,1.8-2.3,1.8-1.391,0-2.248-.782-2.248-1.786a1.659,1.659,0,0,1,1.179-1.566,1.569,1.569,0,0,1-.93-1.463c0-1.012.92-1.629,2.026-1.629s2.026.551,2.026,1.583a1.567,1.567,0,0,1-1.022,1.4A1.79,1.79,0,0,1,298.665,99.614Zm-1.2,0c0-.579-.3-.837-1.133-1.141l-.285-.1A1.3,1.3,0,0,0,295.3,99.6c0,.59.422.949,1.086.949C297.082,100.546,297.469,100.149,297.469,99.614Zm-1.962-2.991c0,.524.332.754.931.975l.174.064a1.139,1.139,0,0,0,.662-1.049.887.887,0,0,0-1.768.01Z" transform="translate(-294.116 -94.69)" fill="#607bff"/>
            <path id="Path_12327" data-name="Path 12327" d="M302.416,98.188c0,2.072-.754,3.231-2.218,3.231s-2.219-1.159-2.219-3.231.763-3.213,2.219-3.213S302.416,96.126,302.416,98.188Zm-3.223,0c0,1.731.324,2.338,1.005,2.338s1-.588,1-2.338-.322-2.32-1-2.32S299.194,96.475,299.194,98.188Z" transform="translate(-292.681 -94.69)" fill="#607bff"/>
            <path id="Path_12328" data-name="Path 12328" d="M304.915,96.662a1.57,1.57,0,1,1-1.576-1.61A1.524,1.524,0,0,1,304.915,96.662Zm-2.238,0c0,.433.139.876.662.876s.664-.433.664-.876-.129-.874-.664-.874S302.677,96.221,302.677,96.662Zm5.165-1.407-4.272,6.435-.754-.488,4.264-6.435Zm1.023,4.63a1.57,1.57,0,1,1-1.565-1.61A1.515,1.515,0,0,1,308.865,99.885Zm-2.227,0c0,.433.137.875.662.875s.662-.432.662-.875-.129-.874-.662-.874S306.638,99.443,306.638,99.885Z" transform="translate(-291.271 -94.767)" fill="#607bff"/>
          </g>
          <g id="Group_2749" data-name="Group 2749" transform="translate(20.257)">
            <rect id="Rectangle_739" data-name="Rectangle 739" width="5.157" height="1.671" transform="translate(0 6.842)" fill="#607bff"/>
            <rect id="Rectangle_740" data-name="Rectangle 740" width="5.157" height="1.671" transform="translate(0 4.442)" fill="#607bff"/>
            <rect id="Rectangle_741" data-name="Rectangle 741" width="5.157" height="1.671" transform="translate(0 2.042)" fill="#607bff"/>
            <rect id="Rectangle_742" data-name="Rectangle 742" width="2.643" height="1.313" transform="translate(1.257)" fill="#212157"/>
          </g>
        </g>
      </g>
      <path id="Path_12346" data-name="Path 12346" d="M265.991,92.954H241.875a2.159,2.159,0,0,1-2.159-2.16h0a2.159,2.159,0,0,1,2.159-2.16h24.116a2.159,2.159,0,0,1,2.159,2.16h0A2.159,2.159,0,0,1,265.991,92.954Z" transform="translate(800.438 131.393)" fill="#fff"/>
      <g id="Group_2758" data-name="Group 2758" transform="translate(1116.399 245.472)">
        <path id="Path_12347" data-name="Path 12347" d="M311.175,109.8H296.62a1.308,1.308,0,0,1-1.308-1.307h0a1.308,1.308,0,0,1,1.308-1.308h14.555a1.308,1.308,0,0,1,1.308,1.308h0A1.308,1.308,0,0,1,311.175,109.8Z" transform="translate(-295.312 -107.188)" fill="#212157"/>
        <path id="Path_12348" data-name="Path 12348" d="M311.175,114H296.62a1.308,1.308,0,0,1-1.308-1.308h0a1.308,1.308,0,0,1,1.308-1.307h14.555a1.308,1.308,0,0,1,1.308,1.307h0A1.308,1.308,0,0,1,311.175,114Z" transform="translate(-295.312 -105.629)" fill="#212157"/>
        <path id="Path_12349" data-name="Path 12349" d="M311.175,118.2H296.62a1.308,1.308,0,0,1-1.308-1.308h0a1.308,1.308,0,0,1,1.308-1.308h14.555a1.308,1.308,0,0,1,1.308,1.308h0A1.308,1.308,0,0,1,311.175,118.2Z" transform="translate(-295.312 -104.071)" fill="#212157"/>
      </g>
      <path id="Path_12350" data-name="Path 12350" d="M295.933,121.315H199.4a7.064,7.064,0,0,1-7.064-7.064h0a7.063,7.063,0,0,1,7.064-7.063h96.537A7.063,7.063,0,0,1,303,114.251h0A7.064,7.064,0,0,1,295.933,121.315Z" transform="translate(782.839 138.284)" fill="#ff1d79"/>
      <ellipse id="Ellipse_453" data-name="Ellipse 453" cx="105.11" cy="15.244" rx="105.11" ry="15.244" transform="translate(1078.107 670.542)" fill="#dbe2e4"/>
      <path id="Path_12361" data-name="Path 12361" d="M339.582,162.366a2.163,2.163,0,0,1,1.429-2.149s1.9-.919,3.224,2.149c0,0,2.869,2.05,4.763,8.984a5.447,5.447,0,0,0,2.67,3.412c3.091,1.651,9.915,3.867,18.256-1.528a1.428,1.428,0,0,0,.122-.089l.078.1c.188,6.89,2.935,13.182,4.829,16.749a9.868,9.868,0,0,0,2.205,2.792c-13.637,7.865-23.164,5.207-26.919,3.5a3.784,3.784,0,0,1-1.551-1.307,4.144,4.144,0,0,1-.587-1.3,61.289,61.289,0,0,0-2.626-7.654c-1.185-2.98-2.271-5.263-2.271-5.263s-2.448,3.379-4.564,3.933a4.286,4.286,0,0,1-.974-1.739l-4.387-15.221a14.178,14.178,0,0,1-.565-3.977,4.081,4.081,0,0,0-.122-.964l-.554-2.248a20.54,20.54,0,0,1-.587-4.853v-1.24l.077-.178a5.32,5.32,0,0,0,.632.178,9.327,9.327,0,0,1,1.85,3.3l1.141,5a2.14,2.14,0,0,0,4.01.476Z" transform="translate(834.509 155.774)" fill="#f4a795"/>
      <path id="Path_12362" data-name="Path 12362" d="M389.292,423.869a6.259,6.259,0,0,0-.4-1.574h-.011a6.118,6.118,0,0,0-1.595-2.337,6.427,6.427,0,0,0-2.249-1.429c-.221,1.784-.465,3.6-.709,5.45a.732.732,0,0,1-.144.078,22.366,22.366,0,0,1-2.736,1.285v.011c-3.955,1.573-11.31,3.478-17.913-.532a59.29,59.29,0,0,0,.731,16.44,3.416,3.416,0,0,0,.9,1.7,3.348,3.348,0,0,0,1.573.908,15.2,15.2,0,0,0,9.626-.5,2.945,2.945,0,0,0,1.5-1.518,9.33,9.33,0,0,1,3.622-4.309s7.157-4.033,7.843-11.167A11.8,11.8,0,0,0,389.292,423.869Z" transform="translate(846.326 253.917)" fill="#4a4a4a"/>
      <path id="Path_12363" data-name="Path 12363" d="M326.439,264.824l-1.806,11.145s1.939.2,5.329.476v-.011a34.41,34.41,0,0,1,1.362-9.571v-.011c-1.1-.045-1.883-.111-2.459-.189A3.092,3.092,0,0,1,326.439,264.824Zm25.8,2.67-6.624-.21-6.492-.211-4.763-.155s-1.884,6.492-.61,9.8c3.479.244,7.81.5,12.729.7,1.75.066,3.567.133,5.461.177,2.725.078,5.583.133,8.53.144,1.108.011,2.227.011,3.368.011.1-.742.166-1.517.2-2.282a49.781,49.781,0,0,0-.2-7.212C356.947,268,352.239,267.494,352.239,267.494Zm30.187.554c-2.249.155-4.475.244-6.647.3-1.694.044-3.356.056-4.951.056-1.175,0-2.316-.023-3.423-.045,0,0,.144,1.739.2,3.877a34.022,34.022,0,0,1-.2,5.484c8.541-.1,17.58-.532,26.3-1.5,0-3.81-.4-8.795-.4-8.795C388.121,267.815,382.427,268.048,382.427,268.048Zm15.454-1.03c-.543.055-1.13.122-1.751.177a52.2,52.2,0,0,1,.277,8.707q2.676-.331,5.284-.742v-8.84A23.065,23.065,0,0,1,397.881,267.018Z" transform="translate(831.977 196.83)" fill="#4a4a4a"/>
      <path id="Path_12364" data-name="Path 12364" d="M341.257,173.593s1.086,2.283,2.271,5.263l-.166.066a10.24,10.24,0,0,1-4.741-.177,4.213,4.213,0,0,1-1.928-1.219C338.809,176.972,341.257,173.593,341.257,173.593Z" transform="translate(836.455 162.947)" fill="#e07f6c"/>
      <path id="Path_12365" data-name="Path 12365" d="M391.351,248.581a56.535,56.535,0,0,1,.455,6.2,25.511,25.511,0,0,1-2.116-1.44,35.875,35.875,0,0,1-5.827-5.561h-.011c.077-1.9.232-3.756.454-5.561A23.95,23.95,0,0,0,391.351,248.581Z" transform="translate(853.971 188.436)" fill="#fff"/>
      <path id="Path_12366" data-name="Path 12366" d="M409.737,250.637c-.011.687-.033,1.362-.056,2a2.853,2.853,0,0,1-1.85,2.57,18.727,18.727,0,0,1-2.913.831,20.6,20.6,0,0,1-15.143-2.98,56.535,56.535,0,0,0-.455-6.2C393.818,249.629,400.542,251.966,409.737,250.637Z" transform="translate(856.001 190.158)" fill="#fff"/>
      <path id="Path_12367" data-name="Path 12367" d="M286.927,199.784C289.519,180.043,302.391,188,302.391,188c-13.526,4.786-11.432,21.281-11.432,21.281a30.9,30.9,0,0,1-3.224-4.431,6.793,6.793,0,0,1-.919-4.221C286.849,200.338,286.882,200.061,286.927,199.784Z" transform="translate(817.915 167.708)" fill="#fff"/>
      <path id="Path_12368" data-name="Path 12368" d="M376.323,183.92l1.208.576c-2.515,5.738-12.308,7.843-15.642,8.408a16.362,16.362,0,0,1-1.939.222c-18.234.941-19.884-8.5-19.929-8.774,3.4.033,5.484.2,5.484.2a3.785,3.785,0,0,0,1.551,1.307c3.755,1.707,13.282,4.365,26.919-3.5A9.879,9.879,0,0,0,376.323,183.92Z" transform="translate(837.691 166.202)" fill="#fff"/>
      <path id="Path_12369" data-name="Path 12369" d="M344.964,434.486c.643,3.257-2.669,4.708-4.641,5.284a9.963,9.963,0,0,1-2.149.377c-6.282.41-9.893-2.382-11.189-3.633a6.981,6.981,0,0,0-1.584-1.141l-10.369-5.462c-5.661-3.689-4.83-8.264-4.83-8.264.7,6.857,10.325,9.294,10.325,9.294,4.176.576,8.939,4.52,8.939,4.52,5.473,3.678,10.258,2.869,12.806,1.961A4.349,4.349,0,0,0,344.964,434.486Z" transform="translate(826.601 255.075)" fill="#4a4a4a"/>
      <path id="Path_12370" data-name="Path 12370" d="M388.851,424.248a14.216,14.216,0,0,1-5.14,11.311,11.992,11.992,0,0,0-4.165,4.386,8.463,8.463,0,0,1-5.827,4.243,19.308,19.308,0,0,1-6.591-.144c-3.49-1.041-2.437-3.212-2.437-3.212a3.349,3.349,0,0,0,1.573.908,15.2,15.2,0,0,0,9.626-.5,2.945,2.945,0,0,0,1.5-1.518,9.33,9.33,0,0,1,3.622-4.309S388.166,431.382,388.851,424.248Z" transform="translate(846.799 256.041)" fill="#4a4a4a"/>
      <path id="Path_12371" data-name="Path 12371" d="M364.105,308.667l-8.4,29.5-3.955-25.39h-.011a43.963,43.963,0,0,0,2.327-5.617A95.956,95.956,0,0,0,364.105,308.667Z" transform="translate(842.045 212.554)" fill="#4a4a4a"/>
      <path id="Path_12372" data-name="Path 12372" d="M344.921,429.467a28.385,28.385,0,0,1-16.185-.033c-.886-.266-1.373-.466-1.373-.466l-.787-11.886a15.051,15.051,0,0,0-7.344-3.113,6.51,6.51,0,0,0-4.354,1.064,10.306,10.306,0,0,0-3.778,4.342,10.012,10.012,0,0,0-.9,5.14c.7,6.857,10.325,9.294,10.325,9.294,4.176.576,8.939,4.52,8.939,4.52,5.473,3.678,10.258,2.869,12.806,1.961a4.349,4.349,0,0,0,2.692-2.936A15.43,15.43,0,0,0,344.921,429.467Z" transform="translate(826.6 252.207)" fill="#4a4a4a"/>
      <path id="Path_12373" data-name="Path 12373" d="M392.932,251.773a20.6,20.6,0,0,0,15.143,2.98s-7.278,22.355-25.368,35.128c-.986-5.65-1.884-9.339-1.884-9.339V271.7a5.1,5.1,0,0,0,3.534-3.656,45.938,45.938,0,0,0,1-5.882l.078.011a66.7,66.7,0,0,0,5.384-11.842A25.5,25.5,0,0,0,392.932,251.773Z" transform="translate(852.845 191.448)" fill="#f4a795"/>
      <path id="Path_12374" data-name="Path 12374" d="M366,140.127c10.933.111,8.64,10.967,8.64,10.967a10.5,10.5,0,0,0-.243,4.774,42.926,42.926,0,0,1,0,8.774l-.964,5.029-1.451,7.932a3.427,3.427,0,0,1-1.374,2.138,1.421,1.421,0,0,1-.122.089c-8.341,5.4-15.165,3.179-18.256,1.528a5.447,5.447,0,0,1-2.67-3.412c-1.894-6.934-4.763-8.984-4.763-8.984-1.319-3.068-3.224-2.149-3.224-2.149a2.163,2.163,0,0,0-1.429,2.149l-.421.864a2.14,2.14,0,0,1-4.01-.476l-1.141-5a9.328,9.328,0,0,0-1.85-3.3,5.316,5.316,0,0,1-.632-.178,3.179,3.179,0,0,1-2.082-2.525,4.592,4.592,0,0,1,.543-3.1l.6-1.075a11.379,11.379,0,0,0,1.13-2.824c2.437-9.538,12.518-12.341,12.518-12.341,10.756-5.1,17.514-1.041,19.563.554A2.773,2.773,0,0,0,366,140.127Z" transform="translate(833.945 149.178)" fill="#4a4a4a"/>
      <path id="Path_12375" data-name="Path 12375" d="M402.994,369.272a185.278,185.278,0,0,1,1.352-37.908c5.206-11.865,3.711-30.686,1.8-43.371v-.011c-.221-1.429-.443-2.781-.653-4.032-.986-5.65-1.884-9.339-1.884-9.339q-2.608.416-5.284.742a52.2,52.2,0,0,0-.277-8.707c-.9.078-1.85.155-2.824.233,0,0,.4,4.985.4,8.795-8.718.964-17.757,1.4-26.3,1.5a34.018,34.018,0,0,0,.2-5.484c-.055-2.138-.2-3.877-.2-3.877-.466,0-.931-.011-1.374-.033q-1.129-.016-2.193-.067a49.774,49.774,0,0,1,.2,7.212c-.033.765-.1,1.54-.2,2.282-1.141,0-2.26,0-3.368-.011-2.947-.011-5.805-.066-8.53-.144-1.894-.044-3.711-.111-5.461-.177-4.919-.2-9.25-.454-12.729-.7-1.274-3.312.61-9.8.61-9.8-1.208,0-2.205-.022-3.036-.066v.011a34.41,34.41,0,0,0-1.362,9.571v.011c-2.5-.2-4.221-.366-4.941-.443l-.388-.033-4.287,26.4s-2.814,5.628-2.814,28.37v79.352q0,6.712.443,13.415l3.224,48.954.787,11.886s.487.2,1.373.466a28.385,28.385,0,0,0,16.185.033c.476-.144.964-.31,1.44-.5l6.536-66.888,2.625-26.8c.3-3.046.743-6.081,1.33-9.083l1.573-8.076.011-.022,8.762-44.977h-.011a43.966,43.966,0,0,0,2.327-5.617,95.959,95.959,0,0,0,10.036,1.507l-8.4,29.5q.3,1.944.465,3.888l10.391,123.286a12.157,12.157,0,0,0,1.252.831v.011c6.6,4.01,13.958,2.105,17.913.532v-.011a22.384,22.384,0,0,0,2.736-1.285.734.734,0,0,0,.144-.078c.244-1.85.488-3.666.709-5.45,7.456-58.734,4.4-86.552,2.925-95.159A101.112,101.112,0,0,1,402.994,369.272Z" transform="translate(830.053 197.38)" fill="#656565"/>
      <path id="Path_12376" data-name="Path 12376" d="M446.722,274.056c-9.2,1.329-15.919-1.008-20.417-3.778-.764-6.536-2.337-14.656-3.179-18.876-.022-.1-.033-.189-.055-.277a2.755,2.755,0,0,1-.056-.277c-.3-1.44-.487-2.3-.487-2.3-.233.742-.465,1.573-.72,2.492-.022.089-.056.188-.078.288s-.055.189-.077.288c-.587,2.227-1.219,4.9-1.74,7.832l-.1.6c-.155.9-.288,1.806-.41,2.748-.056.365-.1.753-.144,1.13-.222,1.8-.377,3.666-.454,5.561a52.975,52.975,0,0,0,.5,9.892,17.655,17.655,0,0,1,.2,3.811c-.067,1.008-.167,2.293-.322,3.689a45.937,45.937,0,0,1-1,5.882,5.1,5.1,0,0,1-3.534,3.656,23.065,23.065,0,0,1-3.81.7c-.543.055-1.13.122-1.751.177-.9.078-1.85.155-2.824.233-5.185.387-10.879.62-10.879.62-1.95.133-3.888.221-5.782.277-.288.011-.577.011-.865.022-.132,0-.265.011-.4.011-1.44.033-2.847.045-4.21.045h-.687c-1.052,0-2.082-.023-3.079-.045-.466,0-.931-.011-1.374-.033q-1.129-.016-2.193-.067c-6.891-.254-11.6-.764-11.6-.764l-6.347-.2-.277-.011-.277-.011-5.794-.189-.421-.011-.41-.011-4.353-.144c-1.208,0-2.205-.022-3.036-.066-1.1-.045-1.883-.111-2.459-.189a3.092,3.092,0,0,1-2.426-1.839c-1.019-2.381-.886-5.893-.72-7.754a32.932,32.932,0,0,0,.144-3.468c-.078-10.158-.687-19.873-1.385-27.794-1-11.41-2.16-19.12-2.16-19.12a94.707,94.707,0,0,1-7.633-15.719c-.675-1.8-1.24-3.479-1.728-5-.044-.11-.077-.221-.111-.332l-.1-.332c-.532-1.717-.931-3.213-1.241-4.442a29.717,29.717,0,0,1-3.678,2.492c-.1.044-.2.111-.3.166l-.3.166a38.826,38.826,0,0,1-18.9,5.019,32.848,32.848,0,0,1-11.432-8.552s-2.094-16.5,11.432-21.281a17.918,17.918,0,0,0,5.107,1.662,2.468,2.468,0,0,0,.277.055,2.13,2.13,0,0,0,.277.033c9.7,1.529,22.023-2.548,26.166-4.076a21.381,21.381,0,0,1,3.29-.931c1.728-.332,3.445-.62,5.129-.853.144-.011.3-.033.443-.055s.288-.033.421-.056a116.109,116.109,0,0,1,16.3-.93c.045.277,1.7,9.715,19.929,8.774a16.36,16.36,0,0,0,1.939-.222c3.334-.565,13.127-2.67,15.642-8.408L417.6,194.117l.255.122.255.122,2.814,1.34s11.21,4.376,16.771,19.752c.045.111.089.233.133.355s.089.243.122.365a47.1,47.1,0,0,1,1.662,6.182s1.506,6.879,3.135,16.129c.022.133.044.277.066.41s.045.255.067.388C444.782,250.25,446.809,264.263,446.722,274.056Z" transform="translate(819.017 166.739)" fill="#fbb136"/>
      <path id="Path_12377" data-name="Path 12377" d="M290.894,168.172l-3.357-7.943a1.754,1.754,0,0,1-.144-.709,1.81,1.81,0,0,1,3.379-.908l4.608,7.909,4.343,7.013,1.362-2.382a1.815,1.815,0,0,1,1.562-.908,1.77,1.77,0,0,1,.665.133,1.791,1.791,0,0,1,1.063,2.2l-.022.089a9.466,9.466,0,0,0-.432,2.836v.232a2.213,2.213,0,0,1-.133.765l-1.108,3.267a6.583,6.583,0,0,1-1.949,2.881l-1.872,1.595a21.272,21.272,0,0,0,.432,4.608,5.412,5.412,0,0,0,.376,1.031l4.254,8.773s-12.872-7.954-15.464,11.787c-2.8-6.148-1.485-19.431-.842-24.571l-.222-.033c-2.67-1.761-4.088-5.362-4.653-7.156a1.686,1.686,0,0,1,.488-1.784l.554-.476a2.2,2.2,0,0,0,.687-1.119l.3-1.185a2.031,2.031,0,0,1,1.517-1.485.907.907,0,0,0,.665-.642l.465-1.64a2.36,2.36,0,0,1,1.551-1.595Z" transform="translate(816.386 157.047)" fill="#f4a795"/>
      <path id="Path_12378" data-name="Path 12378" d="M337.6,162.361a4.13,4.13,0,0,1-.288-2.145,2.317,2.317,0,0,1,.448-1.082,2.413,2.413,0,0,1,.976-.716l-.037.015a2.441,2.441,0,0,1,2.685.55,5.432,5.432,0,0,1,1.347,2.23,12.405,12.405,0,0,1,.828,4.934,14.111,14.111,0,0,1-1.019,4.867,5.7,5.7,0,0,1-.625,1.122,2.063,2.063,0,0,1-1.074.83,1.465,1.465,0,0,1-1.288-.294,3.714,3.714,0,0,1-.846-.9c.577.51,1.366,1.064,1.984.761a2.982,2.982,0,0,0,1.126-1.794,16.6,16.6,0,0,0,.671-4.613,13.181,13.181,0,0,0-.749-4.549,4.577,4.577,0,0,0-1.007-1.938,1.7,1.7,0,0,0-1.729-.58l-.037.015a1.8,1.8,0,0,0-1.266,1.23A4.651,4.651,0,0,0,337.6,162.361Z" transform="translate(836.67 157.242)" fill="#e07f6c"/>
      <path id="Path_12379" data-name="Path 12379" d="M359.212,278.435a90.71,90.71,0,0,1,1.114,14.6,92.546,92.546,0,0,1-1.144,14.636l-.727,3.61c-.309,1.189-.591,2.385-.92,3.567-.376,1.17-.73,2.346-1.122,3.509a36.064,36.064,0,0,1-1.4,3.416,39.672,39.672,0,0,1-3.682,6.378,28.274,28.274,0,0,1-5.029,5.331,35.884,35.884,0,0,0,7.931-12.052,62.934,62.934,0,0,0,3.855-13.943,103.948,103.948,0,0,0,1.387-14.466c.106-2.427.095-4.858.049-7.289C359.511,283.3,359.384,280.868,359.212,278.435Z" transform="translate(840.026 201.886)" fill="#3660c9"/>
      <path id="Path_12380" data-name="Path 12380" d="M354.015,306.77a93.422,93.422,0,0,0,11.368,1.89c1.914.185,3.839.307,5.764.3a28.2,28.2,0,0,0,5.749-.529,28.482,28.482,0,0,1-5.741.806,57.87,57.87,0,0,1-5.813-.025,93.958,93.958,0,0,1-11.561-1.359.554.554,0,0,1,.195-1.092l.023.005Z" transform="translate(842.632 212.403)" fill="#3660c9"/>
      <path id="Path_12381" data-name="Path 12381" d="M294.757,174.676a16.687,16.687,0,0,1,.2,2.261c.012.742.012,1.481.062,2.22.022.739.063,1.474.1,2.212l.082,1.108c.051.358.143.713.184,1.105-.213-.314-.389-.662-.58-1.013a8.527,8.527,0,0,1-.326-1.107,12.6,12.6,0,0,1-.292-2.272,11.315,11.315,0,0,1,.123-2.278A15.972,15.972,0,0,1,294.757,174.676Z" transform="translate(820.665 163.349)" fill="#e07f6c"/>
      <path id="Path_12382" data-name="Path 12382" d="M298.259,166.866a2.091,2.091,0,0,0-.92.575,3.213,3.213,0,0,0-.517.9,15.041,15.041,0,0,1-1.19,1.989l.045-.169v.011l-.01.077a.214.214,0,0,1-.036.093,8.914,8.914,0,0,1-1.159,1.325A8.758,8.758,0,0,1,295.04,170l-.047.17v-.011a.2.2,0,0,1,.015-.1l.03-.067a15.152,15.152,0,0,1,1.112-2.035,2.536,2.536,0,0,1,.871-.934A1.613,1.613,0,0,1,298.259,166.866Z" transform="translate(820.774 160.425)" fill="#e07f6c"/>
      <path id="Path_12383" data-name="Path 12383" d="M286.118,159.029a3.811,3.811,0,0,0,.581,1.226c.224.4.443.808.647,1.219.417.819.79,1.655,1.155,2.5a32.229,32.229,0,0,1,1.76,5.228,32,32,0,0,1-2.523-4.9c-.35-.848-.69-1.7-.986-2.569-.152-.433-.291-.872-.424-1.314A3.072,3.072,0,0,1,286.118,159.029Z" transform="translate(817.66 157.538)" fill="#e07f6c"/>
      <path id="Path_12384" data-name="Path 12384" d="M286.843,176.728c.005,2.223-.174,4.4-.351,6.588-.2,2.185-.413,4.36-.793,6.55a32.012,32.012,0,0,1-.034-6.622A33.112,33.112,0,0,1,286.843,176.728Z" transform="translate(817.446 164.111)" fill="#e07f6c"/>
      <path id="Path_12385" data-name="Path 12385" d="M438.335,238.64c-.022-.133-.044-.277-.066-.41-.056.089-.111.166-.166.255a37.417,37.417,0,0,1-2.67,3.545c-4.032,4.719-9.239,7.366-16.883,8.563h-.011c-.4.077-.82.133-1.207.188-.033,0-.078.011-.111.011-2.8.377-5.727.587-8.574.776-1.285.088-2.57.188-3.855.288-7.722.642-13.7,1.949-18.81,4.076-.333-.952-.676-1.894-1.02-2.847-2.78-7.677-5.649-15.619-3.655-23.75a51.346,51.346,0,0,0,10.734-5.329c7.1-4.453,13.792-8.663,22.3-9.771a48.036,48.036,0,0,1,7.5-.3c1.551.045,3.191.144,4.875.31a21.422,21.422,0,0,1,6.525,1.562,2.534,2.534,0,0,1,.232.111c-.033-.122-.077-.243-.122-.365s-.088-.244-.133-.355a22.105,22.105,0,0,0-6.458-1.506c-1.7-.167-3.334-.266-4.9-.311a49.214,49.214,0,0,0-7.589.3c-8.629,1.129-15.376,5.361-22.565,9.881a51.447,51.447,0,0,1-10.225,5.118,23.369,23.369,0,0,1,.953-2.8c3.389-8.12,10.524-13.371,17.414-18.444a100.682,100.682,0,0,0,9.66-7.722,17.562,17.562,0,0,0,4.121-5.6l-.255-.122-.255-.122v.011a17.062,17.062,0,0,1-3.988,5.44,101.588,101.588,0,0,1-9.6,7.677c-6.957,5.117-14.158,10.413-17.6,18.666a23.039,23.039,0,0,0-1.074,3.245,24.584,24.584,0,0,1-19.442-1.307c-6.9-3.345-10.934-9.516-12.684-19.408-.222-1.219-.41-2.448-.6-3.667-.875-5.782-1.784-11.764-6.005-16.461a19.328,19.328,0,0,0-4.2-3.568c-.133.023-.277.034-.421.056s-.3.044-.443.055c.1.056.2.122.3.177a18.832,18.832,0,0,1,4.343,3.656c4.12,4.575,4.973,10.2,5.882,16.174.188,1.218.376,2.448.587,3.667,1.8,10.091,5.916,16.4,12.994,19.818a25.582,25.582,0,0,0,11.355,2.769,27.153,27.153,0,0,0,8.187-1.34c-1.9,8.175.952,16.1,3.733,23.751.343.963.687,1.916,1.03,2.88a36.312,36.312,0,0,0-9.405,5.838l-.421.366q-.831.714-1.629,1.429a80.267,80.267,0,0,0-13.681,15.686,49.366,49.366,0,0,0-3.2,5.583,30.533,30.533,0,0,0-3.312,12.053l.277.011.277.011a30,30,0,0,1,3.245-11.831,50.15,50.15,0,0,1,3.18-5.517A78.916,78.916,0,0,1,374.393,264.2c.532-.476,1.064-.952,1.606-1.418l.421-.365a35.971,35.971,0,0,1,9.228-5.738,61.008,61.008,0,0,1,2.692,9.648,32.451,32.451,0,0,1-.033,10.945,44.912,44.912,0,0,1-3.634,11.433,52.385,52.385,0,0,1-5.583,9.371,1.859,1.859,0,0,0-.122.167h.687a53.166,53.166,0,0,0,5.528-9.306,46.063,46.063,0,0,0,3.678-11.576,33.5,33.5,0,0,0,.033-11.122,63.209,63.209,0,0,0-2.736-9.782c5.062-2.116,11-3.4,18.677-4.043,1.285-.111,2.57-.2,3.855-.288,2.814-.2,5.716-.4,8.486-.765.033,0,.077-.011.11-.011.444-.055.909-.122,1.352-.2h.011c7.777-1.23,13.083-3.933,17.2-8.763a38.077,38.077,0,0,0,2.548-3.356C438.38,238.895,438.357,238.773,438.335,238.64ZM344.073,258.7a26.52,26.52,0,0,1,2.182-3.645c.333-.487.676-.964,1.02-1.451a27.771,27.771,0,0,0,3.733-6.337,22.568,22.568,0,0,0,1.108-13.769c-2.648-10.148-14.069-13.393-23.253-16.008l-1.041-.3c-1.761-.5-4.088-1.185-6.4-1.983-.066-.022-.122-.044-.188-.066a50.681,50.681,0,0,1-4.919-1.95c-.066-.033-.122-.055-.188-.088-6.835-3.158-11.034-7.456-12.806-13.15a24.393,24.393,0,0,1-.842-9.494,2.132,2.132,0,0,1-.277-.033,2.462,2.462,0,0,1-.277-.055v.033a24.9,24.9,0,0,0,.864,9.715c1.817,5.794,6.038,10.181,12.928,13.4.055.034.122.056.177.089a54.355,54.355,0,0,0,5.351,2.127l.2.066c2.26.776,4.509,1.43,6.226,1.917l1.041.3c9.051,2.57,20.306,5.772,22.876,15.609A22.079,22.079,0,0,1,350.5,247.07a27.872,27.872,0,0,1-3.666,6.215c-.355.487-.7.975-1.042,1.462a28.288,28.288,0,0,0-2.226,3.711,75.023,75.023,0,0,0-2.925,6.99c-1.85,5.207-2.625,9.682-2.315,13.316.587,6.724,3.578,12.828,8.873,18.134l.41.011.421.011c-.078-.066-.144-.133-.222-.21-5.339-5.262-8.341-11.311-8.928-17.991-.311-3.556.465-7.953,2.293-13.094A71.679,71.679,0,0,1,344.073,258.7Zm71.065.7-.066.332A61.515,61.515,0,0,1,402.643,285a43.115,43.115,0,0,1-18.467,12.916c-.011.011-.056.022-.067.034A.3.3,0,0,0,384,298a.223.223,0,0,0-.133.2c.133,0,.266-.011.4-.011.288-.011.577-.011.865-.022a43.7,43.7,0,0,0,17.935-12.806,61.539,61.539,0,0,0,11.864-22.82c.122-.942.255-1.85.41-2.748l.1-.6A.263.263,0,0,0,415.138,259.4Z" transform="translate(823.493 166.994)" fill="#ffdb76"/>
      <path id="Path_12386" data-name="Path 12386" d="M348.569,344.068,347,352.144c-.587,3-1.03,6.037-1.33,9.083l-2.625,26.8-6.348-22.842Z" transform="translate(836.455 226.262)" fill="#4a4a4a"/>
      <path id="Path_12387" data-name="Path 12387" d="M384.737,242.24c.554-3.3,1.263-6.281,1.916-8.718.443-.055.566-1.709,1.009-1.787.831,4.132,2.78,14.061,3.566,20.741a23.951,23.951,0,0,1-7.045-6.358C384.338,244.788,384.526,243.492,384.737,242.24Z" transform="translate(854.094 184.541)" fill="#bc7206"/>
      <path id="Path_12388" data-name="Path 12388" d="M395.611,210.97c-1.24,2.374-2.484,4.667-3.592,7.033-.577,1.171-1.07,2.377-1.572,3.583s-.905,2.451-1.362,3.718a18.459,18.459,0,0,1,1.932-7.773,26.008,26.008,0,0,1,2.008-3.487A18.457,18.457,0,0,1,395.611,210.97Z" transform="translate(855.914 176.829)" fill="#995b0a"/>
      <path id="Path_12389" data-name="Path 12389" d="M383.839,266.108a77.311,77.311,0,0,1,.2-8.278c.129-1.375.329-2.744.491-4.12.2-1.369.439-2.733.706-4.091a80.618,80.618,0,0,1,2.035-8.052l1.254-3.932c.369-1.3.7-2.634.981-3.97a83.466,83.466,0,0,0,1.89-16.29c.084-2.743.023-5.49-.13-8.233-.128-2.746-.4-5.486-.784-8.215a80.169,80.169,0,0,1,.106,32.974c-.306,1.356-.651,2.7-1.051,4.039l-1.3,3.928c-.826,2.608-1.529,5.262-2.165,7.929A88.635,88.635,0,0,0,383.839,266.108Z" transform="translate(853.944 173.099)" fill="#995b0a"/>
      <path id="Path_12390" data-name="Path 12390" d="M354.416,242.223A47.527,47.527,0,0,0,358,246.115q1.862,1.872,3.877,3.578a89.489,89.489,0,0,0,8.4,6.351,101.28,101.28,0,0,0,9.061,5.386c3.1,1.684,6.367,3,9.57,4.532-1.686-.533-3.352-1.138-5.037-1.709-1.666-.607-3.293-1.323-4.911-2.06a69.63,69.63,0,0,1-9.3-5.229,64.113,64.113,0,0,1-8.355-6.64A43.278,43.278,0,0,1,354.416,242.223Z" transform="translate(843.038 188.436)" fill="#995b0a"/>
      <path id="Path_12391" data-name="Path 12391" d="M322.677,208.377c-.576-1.861-1.008-3.467-1.34-4.774a29.158,29.158,0,0,1-3.977,2.658,38.925,38.925,0,0,1-19.2,5.185c6.359,2.88,14.955,4.42,26.354,2.26C323.8,211.778,323.187,209.983,322.677,208.377Z" transform="translate(822.145 174.093)" fill="#bc7206"/>
      <path id="Path_12392" data-name="Path 12392" d="M314.479,200.929a108.8,108.8,0,0,0,4.757,14.619,99.6,99.6,0,0,0,6.814,13.729,86.821,86.821,0,0,0,8.859,12.487c1.648,1.954,3.4,3.825,5.237,5.61l1.384,1.333,1.454,1.259,2.9,2.541q-1.551-1.142-3.088-2.316l-1.541-1.17-1.478-1.249a76.714,76.714,0,0,1-5.508-5.446,80.024,80.024,0,0,1-9.171-12.485,90.166,90.166,0,0,1-6.653-13.986c-.459-1.208-.819-2.448-1.226-3.673-.374-1.234-.848-2.436-1.131-3.7l-.926-3.755C314.912,203.465,314.7,202.193,314.479,200.929Z" transform="translate(828.205 173.099)" fill="#995b0a"/>
      <path id="Path_12393" data-name="Path 12393" d="M326.871,236.156a51.153,51.153,0,0,0,3.039,6.529,67.539,67.539,0,0,0,3.711,6.152,80.994,80.994,0,0,0,8.976,11.174,87.6,87.6,0,0,0,10.668,9.587,112.461,112.461,0,0,0,11.99,7.977c-2.192-1-4.319-2.148-6.415-3.346q-3.119-1.845-6.082-3.947a79.632,79.632,0,0,1-10.963-9.509,74.265,74.265,0,0,1-8.887-11.477A52.3,52.3,0,0,1,326.871,236.156Z" transform="translate(832.808 186.183)" fill="#995b0a"/>
      <ellipse id="Ellipse_454" data-name="Ellipse 454" cx="115.678" cy="14.61" rx="115.678" ry="14.61" transform="translate(815.663 674.912)" fill="#dbe2e4"/>
      <g id="Group_2766" data-name="Group 2766" transform="translate(914.255 328.749)">
        <path id="Path_12394" data-name="Path 12394" d="M158.76,182.66l3.367,6.745-3.556,2.067.106,7.562.01,1.081a5.871,5.871,0,0,1-2.076,4.594,9.582,9.582,0,0,1-7.458-3c.251-.5.492-.934.7-1.3a17.444,17.444,0,0,0,2.119-5.37c1.185-5.915-.126-12.219-.765-14.726a14.5,14.5,0,0,1-.525-3.545c-.093-6.44,3.861-8.854,3.861-8.854A24.522,24.522,0,0,1,158.76,182.66Z" transform="translate(-147.453 -167.912)" fill="#e07b61"/>
        <path id="Path_12395" data-name="Path 12395" d="M149.612,192.556a9.582,9.582,0,0,0,7.458,3,5.865,5.865,0,0,1-3.85,1.426h-5.287l-.021-.01A23.522,23.522,0,0,1,149.612,192.556Z" transform="translate(-147.913 -158.759)" fill="#b24f3b"/>
      </g>
      <path id="Path_12396" data-name="Path 12396" d="M164.2,280.011c-11.3.651-17.129,4.122-17.129,4.122-.117-1.9-.232-3.839-.347-5.8a30.027,30.027,0,0,1,6.546-2.739,20.507,20.507,0,0,0,10.9,2.172l.041.062Z" transform="translate(765.902 200.831)" fill="#2b2b2b"/>
      <path id="Path_12397" data-name="Path 12397" d="M166.1,210.275l-17.381-5.5a53.257,53.257,0,0,0,4.857,5.948,13.077,13.077,0,0,1,3.566,8.013,11.323,11.323,0,0,1-.451,4.007l.431.126,1.866,2.076c2.15-1.29,4.553-2.906,7.144-4.772,2.874-2.056,5.979-4.416,9.209-6.975Z" transform="translate(766.643 174.529)" fill="#8eac86"/>
      <path id="Path_12398" data-name="Path 12398" d="M181.852,282.773a77.377,77.377,0,0,0-22.373-2.245l.01-2.182-.041-.062a24.663,24.663,0,0,0,9.954-3.042c.65-.358,1.311-.7,1.972-1.04a80.983,80.983,0,0,1,14.663,2.969c.714,2.045,1.584,4.552,2.613,7.478Q185.124,283.55,181.852,282.773Z" transform="translate(770.626 200.314)" fill="#2b2b2b"/>
      <path id="Path_12399" data-name="Path 12399" d="M210.048,402.445l-.157,4.909H188.913l-1.059-4.909h22.195Z" transform="translate(781.176 247.944)" fill="#fff"/>
      <path id="Path_12400" data-name="Path 12400" d="M133.616,409.55l-3.44,5.392-2.57-1.007-14.318-5.643-1.469-.577,2.35-6.241,13.437,5.58Z" transform="translate(752.937 247.583)" fill="#fff"/>
      <g id="Group_2767" data-name="Group 2767" transform="translate(968.526 666.165)">
        <path id="Path_12401" data-name="Path 12401" d="M244.364,428.354a2.064,2.064,0,0,1,.178,1.216,3.05,3.05,0,0,1-1.941,2.318c-.429.167-.923.336-1.426.5a34.557,34.557,0,0,1-10.342,1.543c-15.881,0-42.345-2.833-42.345-2.833a11.061,11.061,0,0,1-.5-4.762,2.925,2.925,0,0,0,1.846,1.06c6.671,1.027,25.132,3.7,36.4,3.7,0,0,12.282-1.185,17.465-2.275A1,1,0,0,0,244.364,428.354Z" transform="translate(-187.325 -409.347)" fill="#fff"/>
        <path id="Path_12402" data-name="Path 12402" d="M244.525,432.955a1,1,0,0,1-.671.472c-5.183,1.09-17.465,2.275-17.465,2.275-11.265,0-29.727-2.674-36.4-3.7a2.925,2.925,0,0,1-1.846-1.06v-.01a2.93,2.93,0,0,1-.661-1.857V416.885a.876.876,0,0,1,1.322-.754l.366.208,6.629,3.871c5.948,2.244,11.747-2.57,14.171-4.982.756-.756,1.185-1.279,1.185-1.279,4.668,5.915,23.223,12.954,27.251,14.433.5.178,1.018.314,1.532.451a7.327,7.327,0,0,1,4.574,3.021A1.02,1.02,0,0,1,244.525,432.955Z" transform="translate(-187.486 -413.949)" fill="#feddd6"/>
      </g>
      <g id="Group_2768" data-name="Group 2768" transform="translate(854.03 670.797)">
        <path id="Path_12403" data-name="Path 12403" d="M142.938,427.652a3.429,3.429,0,0,0,2.15-1.29c-.62,4.971-11.979,4.353-14.57,4.143a10.967,10.967,0,0,0-1.185-.041,18.543,18.543,0,0,0-7.9,1.825,13.432,13.432,0,0,1-1.731.775,27.806,27.806,0,0,1-15.01,1.164,8.732,8.732,0,0,1-.251-2.663,1.3,1.3,0,0,0,.388.188c6.2,1.721,15.094-1.395,15.094-1.395A54.028,54.028,0,0,1,134,427.485a11.238,11.238,0,0,1,2.717.125A18.3,18.3,0,0,0,142.938,427.652Z" transform="translate(-103.837 -413.97)" fill="#fff"/>
        <path id="Path_12404" data-name="Path 12404" d="M143.329,424.725s2.78,1.071,2.486,3.577a2.926,2.926,0,0,1-.566,1.406v.011a3.429,3.429,0,0,1-2.15,1.291,18.3,18.3,0,0,1-6.221-.043,11.236,11.236,0,0,0-2.717-.125,54.024,54.024,0,0,0-14.076,2.873s-8.895,3.116-15.094,1.395a1.3,1.3,0,0,1-.923-1.059,10.437,10.437,0,0,1,1.027-5.706l1.751-7.625s.295-3.367,2.245-3.073l1.164.451L119,421.463a6.939,6.939,0,0,0,7.961-2.193l1.133-1.447a1.321,1.321,0,0,1,1.647-.347Z" transform="translate(-103.998 -417.326)" fill="#feddd6"/>
      </g>
      <path id="Path_12405" data-name="Path 12405" d="M209.926,177.29q.582.8,1.1,1.669s-1.868,1.783-5.045,4.751a32.85,32.85,0,0,0-9.241-10.531l5.852-3.293s.41.293,1.081.839A35.532,35.532,0,0,1,209.926,177.29Z" transform="translate(784.477 161.57)" fill="#fbd4c5"/>
      <path id="Path_12406" data-name="Path 12406" d="M225.1,366.993c-14.653-36.239-25.844-67.089-31.823-84.029q-3.524-1.1-6.8-1.877a77.376,77.376,0,0,0-22.373-2.245c-11.3.651-17.129,4.122-17.129,4.122v.052c.251,4.133.513,8.078.765,11.738.336,4.772.661,9.053.975,12.6.368,4.039.713,7.122,1.038,8.873l.126,1.374.629,6.986,2.791,5.37a8.641,8.641,0,0,1,.986,3.515l.283-.022a36.313,36.313,0,0,0,7.112,4.542l-.043.074,7.09,10.184,3.641,5.214,21.565,30.953a11.823,11.823,0,0,0,2.245,2.455c.167.136.335.262.5.388a33.561,33.561,0,0,0,8.6,4.258s-7.835,15.387-8.3,25.363a81.377,81.377,0,0,0,1.606,11l4.436,20.505h22.195l2.171-68.557A31.642,31.642,0,0,0,225.1,366.993Z" transform="translate(765.995 201.999)" fill="#54281a"/>
      <path id="Path_12407" data-name="Path 12407" d="M206.7,406.025s.754,8.307,2.821,12.147c-2.423,2.412-8.223,7.226-14.171,4.982l-6.629-3.872c1.1-4.227,1.333-13.257,1.333-13.257Z" transform="translate(781.497 249.273)" fill="#e07b61"/>
      <path id="Path_12408" data-name="Path 12408" d="M183.226,357.87a33.562,33.562,0,0,0,8.6,4.258s-7.835,15.388-8.3,25.363c-.156-2.056-.24-4.122-.24-6.188Z" transform="translate(779.457 231.388)" fill="#2b2b2b"/>
      <path id="Path_12409" data-name="Path 12409" d="M180.594,271.649s.765,2.275,2.212,6.472a80.981,80.981,0,0,0-14.663-2.969,34.509,34.509,0,0,1,5.684-2.234A32.171,32.171,0,0,1,180.594,271.649Z" transform="translate(773.856 199.365)" fill="#e07b61"/>
      <path id="Path_12410" data-name="Path 12410" d="M163.759,329.425l3.641,5.214-1.825,5.1a49.974,49.974,0,0,1-5.2-1.857Z" transform="translate(770.969 220.823)" fill="#2b2b2b"/>
      <path id="Path_12411" data-name="Path 12411" d="M160.538,323.249l7.09,10.184-3.387,8.455a71.112,71.112,0,0,1-14.16-7.983l-.126-2.737s2.3.682,2.485-4.1c.032-.787.126-1.563.21-2.351l.5-4.384a9.142,9.142,0,0,0,.032-1.677l.283-.022a36.308,36.308,0,0,0,7.112,4.542Z" transform="translate(767.101 216.815)" fill="#2b2b2b"/>
      <path id="Path_12412" data-name="Path 12412" d="M177.768,339.516a71.147,71.147,0,0,1-14.16-7.982l.115,2.528v.095a2.242,2.242,0,0,1-4.479.167l-.23-3.326-2.046.106H156.9a1.493,1.493,0,0,1-1.354-.85,15.959,15.959,0,0,1-.871-2.223l-2.056.084a2.009,2.009,0,0,1-2.087-1.7l-.115-.745a2.557,2.557,0,0,1-2.423-.65c-.021.346-.314,8.255-.776,17.233-.5,9.7-1.2,20.674-1.93,24.713-.074.4-.147.724-.221.975l.011.011a28.955,28.955,0,0,0-8.665,8.852l-5.905,9.441a26.145,26.145,0,0,0-2.381,4.793l-14.59,38.831,13.436,5.58,6.011,2.5,33.429-52.362a27.784,27.784,0,0,0,2.737-5.58l13.825-38.631A50,50,0,0,1,177.768,339.516Z" transform="translate(753.573 219.187)" fill="#54281a"/>
      <path id="Path_12413" data-name="Path 12413" d="M153.515,307.076l.629,6.986-15.387,4.07-1.552-6.755S151.732,308.87,153.515,307.076Z" transform="translate(762.365 212.523)" fill="#fbd4c5"/>
      <path id="Path_12414" data-name="Path 12414" d="M153.395,276.987a30.026,30.026,0,0,0-6.546,2.739c-.158-2.592-.3-5.224-.451-7.879h.043A26.945,26.945,0,0,0,153.395,276.987Z" transform="translate(765.779 199.439)" fill="#b24f3b"/>
      <path id="Path_12415" data-name="Path 12415" d="M193.907,294.591,186.2,278.427l-5.161-10.835a13.773,13.773,0,0,0,1.814-9.712,18.268,18.268,0,0,0-2.748-7.112,20.494,20.494,0,0,0-2.015-2.643l-3.66-4.08-6.3-7.028-1.866-2.076-.431-.126a10.144,10.144,0,0,1-4.94,5.916,4.489,4.489,0,0,1-.535.21,9.84,9.84,0,0,1-7.155-.379,13.517,13.517,0,0,1-5.937-5.831,14.1,14.1,0,0,0-3.293-3.84,9.322,9.322,0,0,0-7.259-2.381,12.138,12.138,0,0,0-8.643,5.759c-3.326,5.192-4.175,13.133-3.881,21.231a120.466,120.466,0,0,0,1.51,14.568c.839,5.172,1.825,9.608,2.5,12.367.041.147.073.283.1.42.346,1.406.65,2.821.923,4.238.106.6.21,1.2.314,1.8l2.2,13.143,1.93,11.56,2.486,14.821,2.611,15.6,1.877,11.244.084.388,1.333,5.79s14.527-2.507,16.31-4.3l-.126-1.374c-.325-1.751-.671-4.834-1.038-8.873-.314-3.545-.639-7.825-.975-12.6-.252-3.66-.514-7.6-.765-11.738V322.5c-.117-1.9-.232-3.839-.347-5.8-.158-2.592-.3-5.224-.451-7.879-.084-1.467-.167-2.947-.241-4.426-.262-4.847-.513-9.714-.765-14.464-.074-1.437-.136-2.863-.221-4.269h.011l2.36,3.766,8.2,13.069,8.549,13.636a24.639,24.639,0,0,0,9.954-3.043c.65-.357,1.311-.7,1.972-1.038a34.5,34.5,0,0,1,5.684-2.234,32.17,32.17,0,0,1,6.767-1.269c.513-.042.975-.042,1.374-.042a1.38,1.38,0,0,0,1.28-1.982Zm29.8-122.3H223.7l-3.252,1.836s-2.108,1.332-5.569,3.514c-3.756,2.371-9.1,5.727-15.084,9.482-4.479,2.811-9.294,5.833-14.076,8.811-4.752,2.968-9.461,5.905-13.73,8.527-6.681,4.143-12.273,7.541-15.22,9.251l-.126.032a14.907,14.907,0,0,0,1.216,3.1l17.381,5.5,9.241,2.927c1.374-1.092,2.78-2.213,4.2-3.378,4.992-4.048,10.184-8.455,15.24-12.839,4.373-3.818,8.654-7.615,12.618-11.181,6.724-6.052,12.546-11.433,16.416-15.053A32.85,32.85,0,0,0,223.708,172.287Z" transform="translate(757.51 162.461)" fill="#b3cbb1"/>
      <path id="Path_12416" data-name="Path 12416" d="M114.5,406.445l14.317,5.643-2.412,9.777-1.133,1.447a6.939,6.939,0,0,1-7.961,2.193l-8.748-3.367Z" transform="translate(751.726 249.429)" fill="#e07b61"/>
      <g id="Group_2769" data-name="Group 2769" transform="translate(988.15 301.677)">
        <path id="Path_12417" data-name="Path 12417" d="M224.862,164.913l-.368,3.891a1.56,1.56,0,0,0,2.13,1.6l.745-.293,2.538-1.007a2.315,2.315,0,0,1,.787-.147,2.168,2.168,0,0,1,1.09,4.048l-11.16,6.451a6.015,6.015,0,0,1-3,.8,6.776,6.776,0,0,0-3.808,1.175l-5.558,3.775-.21.147a35.53,35.53,0,0,0-6.252-6.565l.095-.158c.871-.5,3.409-3.441,4.856-5.151a10.023,10.023,0,0,0,1.532-2.559c1.5-3.471,2.863-3.062,2.863-3.062.765-2.863,2.654-2.622,2.654-2.622,2.654-3.955,5.4-3.116,5.4-3.116h.011a29.054,29.054,0,0,0,2.538-6.65l1.51-6.147a1.526,1.526,0,0,1,3,.514Z" transform="translate(-201.796 -148.172)" fill="#e07b61"/>
        <path id="Path_12418" data-name="Path 12418" d="M218.717,160.379a9.39,9.39,0,0,1,2.507,5.2l-.745.293a1.56,1.56,0,0,1-2.13-1.6Z" transform="translate(-195.651 -143.638)" fill="#e07b61"/>
        <path id="Path_12419" data-name="Path 12419" d="M219.175,149.013c-.2,1.481-.477,2.943-.771,4.4a32.375,32.375,0,0,1-1.1,4.354,23.6,23.6,0,0,1-1.871,4.1,20.21,20.21,0,0,1-2.65,3.622c.76-1.285,1.482-2.577,2.113-3.9a40.625,40.625,0,0,0,1.664-4.076c.5-1.377.826-2.809,1.255-4.242S218.663,150.417,219.175,149.013Z" transform="translate(-197.714 -147.86)" fill="#b24f3b"/>
        <path id="Path_12420" data-name="Path 12420" d="M223.864,165.967c-.579.325-1.177.6-1.765.906l-.9.416a4.267,4.267,0,0,1-.992.38,1.876,1.876,0,0,1-1.973-1.072,2.138,2.138,0,0,1-.149-1.155l.084-.983c.133-1.31.269-2.619.459-3.924s.381-2.61.665-3.906c.041,1.326,0,2.644-.063,3.961s-.163,2.63-.278,3.943l-.1.983a1.475,1.475,0,0,0,.063.782,1.272,1.272,0,0,0,1.227.772,3.9,3.9,0,0,0,.878-.241l.938-.311C222.594,166.334,223.22,166.127,223.864,165.967Z" transform="translate(-195.753 -145.031)" fill="#b24f3b"/>
      </g>
      <path id="Path_12421" data-name="Path 12421" d="M171.985,327.875a41.461,41.461,0,0,1-10.414-3.193,28.869,28.869,0,0,1-9.054-6.049A67.53,67.53,0,0,0,162,323.728c1.628.751,3.287,1.436,4.951,2.124Z" transform="translate(768.052 216.815)"/>
      <path id="Path_12422" data-name="Path 12422" d="M125.908,377.351c1.639-3.028,3.376-6,5.128-8.954a28.146,28.146,0,0,1,6.692-7.973,41.51,41.51,0,0,1,4.288-2.958l4.362-2.733q2.185-1.364,4.328-2.785a44.184,44.184,0,0,0,4.192-2.98,58.117,58.117,0,0,1-8.073,6.437c-1.4,1-2.842,1.942-4.273,2.9a43.153,43.153,0,0,0-4.162,2.933,31.273,31.273,0,0,0-6.675,7.588C129.822,371.693,127.914,374.552,125.908,377.351Z" transform="translate(758.169 228.081)"/>
      <g id="Group_2770" data-name="Group 2770" transform="translate(900.527 526.585)">
        <path id="Path_12423" data-name="Path 12423" d="M157.662,321.055a8.641,8.641,0,0,0-.986-3.515l-2.791-5.37L138.5,316.24l-.514,4.249a9.838,9.838,0,0,0-.074,1.668l.032.817.2,5.045a2.5,2.5,0,0,0,.8,1.762v.011a2.557,2.557,0,0,0,2.423.65l.115.745a2.009,2.009,0,0,0,2.087,1.7l2.056-.084a15.961,15.961,0,0,0,.871,2.223,1.493,1.493,0,0,0,1.354.85h.073l2.046-.106.23,3.326a2.242,2.242,0,0,0,4.479-.167v-.095l-.115-2.527-.126-2.739s2.3.682,2.486-4.1c.03-.787.125-1.563.208-2.351l.5-4.384A9.142,9.142,0,0,0,157.662,321.055Z" transform="translate(-137.903 -312.17)" fill="#e07b61"/>
        <path id="Path_12424" data-name="Path 12424" d="M150.267,333.827a62.088,62.088,0,0,1-.731-7.473,62.919,62.919,0,0,1,.059-7.507,62.665,62.665,0,0,1,.727,7.473A64.7,64.7,0,0,1,150.267,333.827Z" transform="translate(-133.612 -309.69)" fill="#b24f3b"/>
        <path id="Path_12425" data-name="Path 12425" d="M146.215,322.243a49.055,49.055,0,0,1,.856,6.528,47.705,47.705,0,0,1,.067,6.584,55.409,55.409,0,0,1-.923-13.112Z" transform="translate(-134.846 -308.429)" fill="#b24f3b"/>
        <path id="Path_12426" data-name="Path 12426" d="M142.77,321.532a22.625,22.625,0,0,1,.546,2.527c.145.841.23,1.71.336,2.534s.251,1.651.431,2.473c.232.8.459,1.618.628,2.482a17.667,17.667,0,0,1-1.216-2.308,11.613,11.613,0,0,1-.623-2.547c-.095-.876-.143-1.713-.165-2.577A22.337,22.337,0,0,1,142.77,321.532Z" transform="translate(-136.123 -308.693)" fill="#b24f3b"/>
        <path id="Path_12427" data-name="Path 12427" d="M139.584,319.987a22.665,22.665,0,0,1,1.28,8.3,19.737,19.737,0,0,1-1.029-4.088A20.1,20.1,0,0,1,139.584,319.987Z" transform="translate(-137.289 -309.267)" fill="#b24f3b"/>
      </g>
      <path id="Path_12428" data-name="Path 12428" d="M123.753,434.062l-.665-.417,29.38-46.729a96.21,96.21,0,0,0,7.908-15.515l16.867-42.083.731.294-16.867,42.083a97.038,97.038,0,0,1-7.972,15.639Z" transform="translate(757.122 220.784)" fill="#7dafff"/>
      <path id="Path_12429" data-name="Path 12429" d="M209.671,447.792h-.787V387.152a84.611,84.611,0,0,0-5.136-29.1l-28.251-77.5v-.07l.407-.005.355-.129,28.228,77.429a85.415,85.415,0,0,1,5.184,29.369Z" transform="translate(776.587 202.598)" fill="#7dafff"/>
      <g id="Group_2771" data-name="Group 2771" transform="translate(844.842 318.585)">
        <path id="Path_12430" data-name="Path 12430" d="M176.246,235.184a13.078,13.078,0,0,0-3.566-8.013,53.261,53.261,0,0,1-4.858-5.948,14.905,14.905,0,0,1-1.216-3.1,17.583,17.583,0,0,1,.106-9.241,23.521,23.521,0,0,1,1.7-4.416c.251-.5.492-.934.7-1.3a17.446,17.446,0,0,0,2.119-5.37c1.185-5.915-.126-12.219-.765-14.726a14.5,14.5,0,0,1-.525-3.545c-.093-6.44,3.86-8.854,3.86-8.854A14.194,14.194,0,0,0,169.155,166a40.1,40.1,0,0,0-7.1-3.7c-.325-.126-.5-.189-.5-.189a36.122,36.122,0,0,0-18.094-.808.038.038,0,0,1-.021.011c-7.133,1.6-14.863,6.084-20.171,16.752,0,0-4.091,6.775-5.35,32.3,0,0-.21,7.27-7.866,15.944a29.05,29.05,0,0,1-3.179,3.021c-3.682,3.083-13.688,12.869-7.71,24.052,0,0,9.147,9.45,6.62,16.856,0,0-11.025,22.531,5.517,31.194a20.352,20.352,0,0,0,8.59,2.633,14.491,14.491,0,0,0,8.654-2.087,14.107,14.107,0,0,0,5.055-5.612c1.06-2.013,3.021-4.888,5.58-4.888h.011c-.273-1.417-.577-2.832-.923-4.238-.032-.137-.063-.273-.1-.42-.672-2.759-1.658-7.2-2.5-12.367a120.474,120.474,0,0,1-1.51-14.568c-.293-8.1.555-16.039,3.881-21.231a12.138,12.138,0,0,1,8.643-5.758,9.323,9.323,0,0,1,7.259,2.381,14.1,14.1,0,0,1,3.293,3.84,13.517,13.517,0,0,0,5.937,5.831,9.84,9.84,0,0,0,7.155.379,4.5,4.5,0,0,0,.535-.21,10.144,10.144,0,0,0,4.94-5.916A11.323,11.323,0,0,0,176.246,235.184Z" transform="translate(-97.298 -160.501)" fill="#4a4a4a"/>
        <path id="Path_12431" data-name="Path 12431" d="M165.838,245.07a12.518,12.518,0,0,0-1.415-6.062c-1.753-3.6-4.9-6.9-7.931-10.1a71.278,71.278,0,0,1-4.856-5.434c-4.752-6.1-2.455-14.642,1.69-19.992.3-.4.628-.8.975-1.216,1.562-1.9,3.335-4.048,3.367-6.629.021-2.139-1.144-3.922-2.266-5.653a23.783,23.783,0,0,1-1.458-2.486,15.819,15.819,0,0,1,.661-14.108,13.772,13.772,0,0,1,9.954-7.458.574.574,0,0,1,.136-.011l-.314-.221a14.038,14.038,0,0,0-10.007,7.563,16.04,16.04,0,0,0-.66,14.338,20.854,20.854,0,0,0,1.467,2.518c1.1,1.7,2.234,3.461,2.213,5.517-.021,2.486-1.762,4.594-3.293,6.461-.347.421-.672.819-.986,1.218-4.206,5.434-6.525,14.108-1.69,20.327,1.406,1.8,3.094,3.578,4.878,5.455,3.02,3.178,6.147,6.472,7.887,10.017ZM133.5,238.326a16.1,16.1,0,0,1-2.161-5.161,21.946,21.946,0,0,1-.1-8.685c.86-4.678,2.213-8.013,4.416-10.814.608-.787,1.291-1.563,1.95-2.308,1.742-1.95,3.535-3.976,4.323-6.566a20.493,20.493,0,0,0,.241-9.5c-.2-1.112-.451-2.193-.7-3.242a27.225,27.225,0,0,1-1.038-8.81c.839-9.084,4.689-13.521,6.293-15a22.441,22.441,0,0,1,9.43-5.6c.346-.095.745-.221,1.175-.357l.156-.052c.053-.011.095-.032.147-.042l-.388-.158c-.42.137-.828.263-1.153.357a22.536,22.536,0,0,0-9.534,5.665c-4.921,4.509-6.105,12.1-6.378,15.166a27.069,27.069,0,0,0,1.04,8.895c.24,1.049.492,2.13.7,3.22a20.352,20.352,0,0,1-.241,9.378c-.765,2.538-2.549,4.542-4.258,6.483-.672.745-1.354,1.521-1.972,2.307-2.224,2.843-3.6,6.21-4.458,10.941a22.09,22.09,0,0,0,.106,8.789,16.761,16.761,0,0,0,2.213,5.3.172.172,0,0,0,.041.052Zm-18.052,65.548c.368-.4.724-.8,1.09-1.216a20.343,20.343,0,0,0,4.018-6.934,26.81,26.81,0,0,0,.713-14.1,62.675,62.675,0,0,0-3.692-11.475c-.557-1.426-1.134-2.884-1.669-4.375-2.013-5.549-3.629-10.52-5.055-15.638a23.331,23.331,0,0,1,1.059-15.587,33.247,33.247,0,0,1,5.738-9.231l.629-.661a34.66,34.66,0,0,0,5.538-6.806c4.028-7.008,3.2-14.822,2.414-22.384-.715-6.682-1.437-13.595,1.133-20.035,2.58-6.514,6.461-11.287,11.517-14.2a.03.03,0,0,1,.021-.011c.115-.062.23-.136.357-.2l-.44.095-.41.095c-4.94,2.958-8.747,7.709-11.3,14.119-2.581,6.5-1.857,13.447-1.144,20.171.787,7.521,1.606,15.292-2.381,22.226a34.386,34.386,0,0,1-5.5,6.754l-.629.651a33.07,33.07,0,0,0-5.779,9.313A23.508,23.508,0,0,0,110.6,250.2c1.437,5.129,3.042,10.111,5.056,15.66.546,1.5,1.122,2.957,1.679,4.384a63.384,63.384,0,0,1,3.681,11.422,26.526,26.526,0,0,1-.713,13.972,20.093,20.093,0,0,1-3.954,6.849c-.368.409-.745.819-1.112,1.216l-.063.063a.6.6,0,0,1-.084.084Z" transform="translate(-92.68 -160.308)" fill="#4a4a4a"/>
      </g>
      <path id="Path_12432" data-name="Path 12432" d="M216.657,196.315a67.586,67.586,0,0,0-1.668-20.139c0-.011-.01-.032-.01-.041l-.232.147A67.676,67.676,0,0,1,216.4,196.43c0,.043-.01.095-.01.137Zm-12.628,11.2c-.042-1.164-.115-2.288-.178-3.378-.032-.6-.074-1.185-.106-1.751a54.044,54.044,0,0,0-2.643-12.724c-.126-.42-.252-.849-.379-1.269-.262-.9-.535-1.836-.817-2.748,0-.011-.011-.022-.011-.032l-.23.147c.282.891.546,1.814.808,2.706.126.42.251.85.377,1.28a53.968,53.968,0,0,1,2.633,12.661c.032.555.073,1.144.1,1.751.063,1.112.137,2.277.178,3.461v.115ZM185.82,194.427c0,.011.011.022.011.032,2.4,7.2,3.4,15.912,2.968,25.888l-.273.219a.333.333,0,0,0,.011-.1c.44-9.985-.546-18.7-2.947-25.887Zm-10.468,26.527v-.041a61.363,61.363,0,0,0-3.252-17.926c0-.011-.011-.022-.011-.032l-.23.147a60.575,60.575,0,0,1,3.23,17.768Zm-51.167,33.314c.032-.043.063-.073.095-.115.074-.095.147-.178.221-.273a28.131,28.131,0,0,1,10.51-8.139,56.284,56.284,0,0,1,7.668-2.475c3.671-1.007,7.467-2.046,10.583-4.018.021-.021.052-.032.074-.052l-.295-.136C149.978,241,146.234,242.017,142.6,243a57.326,57.326,0,0,0-7.7,2.507,28.023,28.023,0,0,0-10.594,8.2c-.052.052-.1.1-.147.156Zm1.532,14.548c.021-.03.052-.073.074-.1.084-.126.167-.241.262-.368l.1-.156a25.5,25.5,0,0,1,15-9.368c2.034-.45,4.069-.8,6.041-1.133,1.636-.283,3.315-.566,4.951-.912a37.376,37.376,0,0,0,10.28-3.472A35.778,35.778,0,0,0,174.5,242.708l-.167-.188c-.011.01-.021.01-.021.021A35.508,35.508,0,0,1,162.3,253.072a37.443,37.443,0,0,1-10.206,3.45c-1.625.336-3.315.629-4.94.9-1.972.336-4.018.693-6.063,1.144a25.708,25.708,0,0,0-15.147,9.471l-.115.148c-.063.084-.126.178-.178.262Zm2.434,12.042a12.248,12.248,0,0,1,1.72-1.636c5.434-4.091,12.156-5.423,18.661-6.7l.513-.095c1.333-.262,2.56-.535,3.755-.828,8.265-2.034,14.507-5.129,19.06-9.45,2.958-2.811,5.3-7.332,7.174-10.971l.063-.115c.284-.546.577-1.155.882-1.773.01-.021.021-.052.032-.074l.167.252v.011c-.284.608-.566,1.174-.85,1.709l-.062.117c-1.888,3.649-4.238,8.2-7.218,11.034-4.594,4.353-10.877,7.467-19.185,9.513-1.205.3-2.433.576-3.775.828l-.5.106c-6.472,1.268-13.164,2.591-18.546,6.65a11.58,11.58,0,0,0-1.762,1.657.317.317,0,0,0-.052.074Zm3.608,19.929c.021-.031.052-.063.073-.095,2.549-3.252,6.546-7.059,16.919-10.626a49.212,49.212,0,0,1,4.91-1.426c.01-.011.01-.011.021-.011.745-.188,1.447-.346,2.15-.5.011,0,.032-.01.041-.01,2.13-.473,4.3-.871,6.41-1.27a108.227,108.227,0,0,0,11.664-2.643,31.066,31.066,0,0,0,12.3-7.081l-.115-.241c-.01,0-.021.011-.032.021a30.756,30.756,0,0,1-12.24,7.049,108.788,108.788,0,0,1-11.634,2.633c-2.119.4-4.31.808-6.461,1.291-.011,0-.032.01-.042.01-.682.137-1.363.3-2.087.483-.01.011-.01.011-.021.011-1.857.451-3.472.923-4.951,1.437-5.822,2-12.388,4.836-16.971,10.615Zm1.93,11.538.063-.063c3.062-2.864,7.9-6.2,20.674-9.157.011-.01.011-.01.021-.01.882-.21,1.69-.4,2.466-.566,2.119-.462,4.373-.882,7.111-1.333.022,0,.032-.01.053-.01,1.867-.295,3.786-.577,5.621-.85a140.509,140.509,0,0,0,16.091-3,23.147,23.147,0,0,0,8.171-4.05l-.126-.251-.021.021a22.963,22.963,0,0,1-8.087,4.028,140.393,140.393,0,0,1-16.059,2.99c-1.866.282-3.8.566-5.685.871-.022,0-.032.01-.052.01-2.717.442-4.962.85-7.081,1.322-.767.169-1.573.357-2.444.555-.011.011-.011.011-.022.011-7.174,1.658-15.24,4.048-20.747,9.168Zm21.766,8.665c-.011,0-.022.011-.032.011-.525.125-1.049.262-1.574.388-.639.167-1.289.325-1.941.481-1.28.3-2.57.577-3.828.83a51.4,51.4,0,0,0-8.906,2.423,13.349,13.349,0,0,0-3.053,1.729l.043.284c.021-.011.042-.032.063-.043a12.874,12.874,0,0,1,3.053-1.72,49.151,49.151,0,0,1,8.863-2.412c1.248-.262,2.548-.525,3.828-.839.65-.158,1.3-.315,1.941-.483.514-.126,1.038-.262,1.552-.377Zm-16.668,21.766c.011-.032.043-.053.063-.085,4.028-4.52,10.2-7.95,17.381-9.671l-.022-.262h-.021c-7.207,1.721-13.405,5.161-17.465,9.692Zm18.419,2.842a46.346,46.346,0,0,0-14.581,7.2,19.935,19.935,0,0,0-1.814,1.521.214.214,0,0,1-.063.052l-.063-.293a21.325,21.325,0,0,1,1.784-1.489,46.526,46.526,0,0,1,14.685-7.248c.01,0,.021-.011.032-.011Z" transform="translate(757.522 163.891)" fill="#ccffc7"/>
      <path id="Path_12433" data-name="Path 12433" d="M144.646,357.914l-7.71,5.055-.251-.671c.734-4.039,1.426-15.01,1.93-24.713Z" transform="translate(762.172 223.854)" fill="#2b2b2b"/>
      <path id="Path_12434" data-name="Path 12434" d="M156.077,271.8l-8.2-13.069-2.36-3.766H145.5c.085,1.406.147,2.832.221,4.269.252,4.75.5,9.618.765,14.464.074,1.478.158,2.958.241,4.426h.043a26.945,26.945,0,0,0,6.954,5.14,20.507,20.507,0,0,0,10.9,2.172Z" transform="translate(765.447 193.167)" fill="#8eac86"/>
      <path id="Path_12435" data-name="Path 12435" d="M154.85,217.972c2.608,2.576,5.125,5.235,7.632,7.9,1.266,1.323,2.492,2.682,3.736,4.024a23.8,23.8,0,0,1,3.411,4.419,17.368,17.368,0,0,1,2.33,10.841,13.108,13.108,0,0,1-1.9,5.254,13.813,13.813,0,0,1-3.869,3.926,13.768,13.768,0,0,0,4.967-9.269,17.662,17.662,0,0,0-2.434-10.224,23.57,23.57,0,0,0-3.241-4.286c-1.2-1.382-2.419-2.747-3.6-4.149l-3.556-4.184C157.17,220.807,155.986,219.411,154.85,217.972Z" transform="translate(768.919 179.429)" fill="#3f593b"/>
      <path id="Path_12436" data-name="Path 12436" d="M148.346,307.634c-.654-6.736-1.13-13.46-1.6-20.206s-.8-13.488-1.2-20.231c-.292-6.749-.616-13.5-.846-20.25l-.324-10.129c-.062-3.379-.159-6.755-.188-10.135.512,6.739.912,13.482,1.318,20.225l1.086,20.232.95,20.242.433,10.125Z" transform="translate(764.962 182.665)" fill="#3f593b"/>
    </g>
  </g>
</svg>
