<svg xmlns="http://www.w3.org/2000/svg" width="567.649" height="449.223" viewBox="0 0 567.649 449.223"><g transform="translate(0)"><path d="M277.171,364.2l5.734,17.611,7.781-6.553-4.1-13.924Z" transform="translate(-98.662 -128.621)" fill="#ffb9b9"/><path d="M322.014,350.661l2.048,27.44,49.555,1.229,21.706,49.555L407.2,423.97s-13.515-46.688-19.658-61.432-29.487-4.1-29.487-4.1l-2.048-4.1Z" transform="translate(-217.223 -190.028)" fill="#2f2e41"/><path d="M441.563,485.018s.819,13.105,2.048,13.924,10.648-.819,10.648-.819,2.83.629,14.334-2.457c12.933-3.47-1.638-8.6-1.638-8.6s-9.419-6.143-13.515-9.01-6.962,3.276-6.962,3.276C447.3,483.789,441.563,485.018,441.563,485.018Z" transform="translate(-259.778 -235.104)" fill="#2f2e41"/><path d="M950.333,571.681l1.3,45.631,13.907,53.453s-3.042,9.126-.869,11.3,12.168,6.084,12.168,6.084l-8.257-113.86Z" transform="translate(-440.88 -268.702)" fill="#2f2e41"/><path d="M975.6,742.179s4.959,10.91-1.984,11.9-39.013,3.637-37.029-1.984,26.119-10.91,26.119-10.91Z" transform="translate(-435.956 -329.04)" fill="#2f2e41"/><path d="M997.087,508.85s-5.215,28.248-8.692,33.028,1.738,39.547,1.738,39.547,7.822,49.977,4.346,57.8-2.608,5.215-2.173,9.561,1.3,7.822,0,11.734-1.3,3.477-1.738,5.65,0,13.906,0,13.906-18.687,6.519-21.729-3.042c0,0,4.346-6.084,3.042-10.865a57.883,57.883,0,0,1-2.173-14.776v-9.126l-19.991-74.748-4.78-26.944s1.3-27.378,6.084-29.986S997.087,508.85,997.087,508.85Z" transform="translate(-438.959 -246.288)" fill="#2f2e41"/><path d="M985.353,770.693s6.519,14.341-2.607,15.645-51.281,4.78-48.673-2.607S968.4,769.39,968.4,769.39Z" transform="translate(-435.051 -339.079)" fill="#2f2e41"/><circle cx="17.383" cy="17.383" r="17.383" transform="translate(524.659 102.655)" fill="#ffb9b9"/><path d="M1007.942,299.136l-.324,22.2-21.312.072s5.409-17.378,2.986-21.012S1007.942,299.136,1007.942,299.136Z" transform="translate(-453.685 -171.416)" fill="#ffb9b9"/><path d="M961.444,345.685s15.21-19.556,26.944-11.3,16.079,27.813,16.079,27.813l-2.607,54.757s-6.519,7.822-2.608,13.037,6.084,3.911,3.042,7.822-6.519,6.953-5.215,8.257-1.3,2.173-1.3,2.173l-46.066,1.3s1.3-1.738-2.607-6.953.869-12.168,0-14.776-1.738.435-2.173-5.65S961.444,345.685,961.444,345.685Z" transform="translate(-438.954 -183.511)" fill="#3f3d56"/><path d="M969.025,524.744s-.869,10.865-7.388,12.6c-2.444.652-4.278-.591-5.615-2.4a10.673,10.673,0,0,1-.341-11.974l1.61-2.576Z" transform="translate(-442.189 -250.448)" fill="#ffb9b9"/><path d="M1015,318.115s.434,8.692,0,10-.869,2.607,0,3.911.434,5.65-.435,6.084,1.738,4.346.869,6.953a18.859,18.859,0,0,1-2.173,4.346c-.434.869-1.135,2.426-1.135,2.426s-12.772-27.2-23.2-20.679a75.587,75.587,0,0,1-18.687,8.692S975.888,309.424,1015,318.115Z" transform="translate(-447.966 -177.887)" fill="#3f3d56"/><path d="M991.367,350.3s13.906,1.3,13.037,19.556,1.3,46.935,1.3,46.935-23.9,36.5-27.813,39.112-4.346,2.173-3.911,4.346.869,3.911-.869,5.649a15,15,0,0,1-3.477,2.607s-13.906-4.78-12.6-9.126,7.388-11.3,7.388-11.3,10.43-16.949,10.865-19.556.435-2.173,1.738-3.477,4.78-6.519,4.78-9.126v-8.257l-3.643-44.126a12.792,12.792,0,0,1,3.393-9.907A11.067,11.067,0,0,1,991.367,350.3Z" transform="translate(-443.235 -189.861)" fill="#3f3d56"/><path d="M978.957,259.566a7.083,7.083,0,0,1-6.563-1.5,5.36,5.36,0,0,1-1.061-6.418c1.044-1.734,3.074-2.581,5.005-3.184a44.315,44.315,0,0,1,13.161-2.008,11.816,11.816,0,0,1,6.171,1.282c.9.545,1.664,1.293,2.555,1.854,1.638,1.032,3.6,1.375,5.4,2.092a13.859,13.859,0,0,1,7.9,8.365,16.7,16.7,0,0,1,.768,3.929,21.526,21.526,0,0,1-1.878,10.67c-2.425,5.287-7.04,9.733-7.692,15.513-2.484-2.086-3.213-5.584-5.137-8.2a10.626,10.626,0,0,0-5.8-3.937,3.378,3.378,0,0,1-1.757-.785,2.911,2.911,0,0,1-.55-1.583l-1.193-8.588c-.243-1.748-.571-3.658-1.912-4.8a6.8,6.8,0,0,0-2.848-1.236,45.924,45.924,0,0,0-7.434-1.212" transform="translate(-448.126 -152.934)" fill="#2f2e41"/><path d="M1015.886,463.234l-24.4,31.659S1013.954,476.115,1015.886,463.234Z" transform="translate(-455.531 -230.099)" opacity="0.1"/><path d="M826.006,307.563l.231,29.9-14.169,21.253,11.593-23.829Z" transform="translate(-289.064 -109.48)" opacity="0.1"/><path d="M556.082,385.1H408.318V382.05h-67V385.1H192.945a10,10,0,0,0-10,10V597.424a10,10,0,0,0,10,10H556.082a10,10,0,0,0,10-10V395.09a9.995,9.995,0,0,0-10-10Z" transform="translate(-167.722 -201.201)" fill="#3f3d56"/><rect width="356.327" height="201.005" transform="translate(28.628 201.558)" opacity="0.1"/><circle cx="3.655" cy="3.655" r="3.655" transform="translate(202.832 188.768)" fill="#ff1d79"/><rect width="354.077" height="200.931" transform="translate(29.226 201.458)" fill="#e6e6e6"/><rect width="333.827" height="174.538" transform="translate(39.351 215.188)" fill="#fff"/><rect width="85.778" height="138.318" transform="translate(69.684 233.297)" fill="#e6e6e6"/><rect width="71.481" height="38.074" transform="translate(170.269 233.297)" fill="#ff1d79"/><rect width="71.481" height="40.965" transform="translate(170.269 281.974)" fill="#e6e6e6"/><rect width="71.481" height="38.074" transform="translate(170.269 333.542)" fill="#e6e6e6"/><rect width="85.778" height="60.278" transform="translate(257.068 233.297)" fill="#e6e6e6"/><rect width="85.778" height="60.278" transform="translate(257.068 311.338)" fill="#ff1d79"/><path d="M567.665,718.973H532.89v-2.506a.5.5,0,0,0-.5-.5H520.471a.5.5,0,0,0-.5.5h0v2.506h-7.452v-2.506a.5.5,0,0,0-.5-.5H500.1a.5.5,0,0,0-.5.5h0v2.506h-7.452v-2.506a.5.5,0,0,0-.5-.5H479.734a.5.5,0,0,0-.5.5h0v2.506h-7.452v-2.506a.5.5,0,0,0-.5-.5H459.365a.5.5,0,0,0-.5.5h0v2.506h-7.452v-2.506a.5.5,0,0,0-.5-.5H439a.5.5,0,0,0-.5.5h0v2.506h-7.452v-2.506a.5.5,0,0,0-.5-.5H418.629a.5.5,0,0,0-.5.5h0v2.506H410.68v-2.506a.5.5,0,0,0-.5-.5h-93.4a.5.5,0,0,0-.5.5h0v2.506h-7.452v-2.506a.5.5,0,0,0-.5-.5H296.419a.5.5,0,0,0-.5.5v2.506H288.47v-2.506a.5.5,0,0,0-.5-.5H276.051a.5.5,0,0,0-.5.5h0v2.506H268.1v-2.506a.5.5,0,0,0-.5-.5H255.682a.5.5,0,0,0-.5.5h0v2.506h-7.452v-2.506a.5.5,0,0,0-.5-.5H235.314a.5.5,0,0,0-.5.5h0v2.506h-7.452v-2.506a.5.5,0,0,0-.5-.5H214.946a.5.5,0,0,0-.5.5h0v2.506H207v-2.506a.5.5,0,0,0-.5-.5H194.577a.5.5,0,0,0-.5.5h0v2.506H171.228A11.923,11.923,0,0,0,159.305,730.9v5.391a11.923,11.923,0,0,0,11.923,11.923H567.665a11.923,11.923,0,0,0,11.923-11.923V730.9a11.923,11.923,0,0,0-11.923-11.923Z" transform="translate(-159.305 -320.064)" fill="#3f3d56"/><path d="M288.326,175.991a19.373,19.373,0,0,0-3.793,9.959c-.442,4.393-1.728,11.419-5.471,15.112-5.7,5.627-7.6,9.847-7.6,9.847l1.9,2.11c0-4.22,2.534-4.923,2.534-4.923l-.634,4.923c17.107,16.176,55.121,1.407,55.121,1.407l-1.267-12.66c3.168,1.407,4.435,11.253,4.435,11.253l5.069-1.407a287.536,287.536,0,0,1-14.572-29.539c-5.7-14.066-14.572-10.55-14.572-10.55C299.02,165.935,292.116,171.116,288.326,175.991Z" transform="translate(-199.228 -125.399)" fill="#2f2e41"/><path d="M390.055,159.083l6.143-40.135s-6.553-15.972,4.5-17.61,3.686,19.249,3.686,19.249l-3.686,38.5Z" transform="translate(-241.443 -101.246)" fill="#ffb9b9"/><path d="M382.425,482.163c2.048,3.276,2.457,20.068,2.457,20.068l14.334-9.01-4.1-14.744Z" transform="translate(-238.727 -235.525)" fill="#ffb9b9"/><path d="M333.72,347.482s-18.02,0-27.849,5.734c-3.159,1.843-4.076,5.167-3.866,8.829a19.032,19.032,0,0,0,17.929,17.715l27.71,1.714c-4.1,11.467,5.324,56.108,5.324,56.108l14.744-2.048s-2.048-15.153-1.638-15.972,4.1-32.764,1.638-49.555-36.04-9.829-36.04-9.829Z" transform="translate(-210.091 -188.896)" fill="#2f2e41"/><path d="M384.469,505.223s-1.229,11.877-.819,13.515,17.2,2.457,32.354-2.048-2.048-9.419-2.048-9.419-10.239-6.962-13.105-9.419-6.962,3.276-6.962,3.276C393.07,504.814,384.469,505.223,384.469,505.223Z" transform="translate(-239.133 -242.204)" fill="#2f2e41"/><circle cx="14.744" cy="14.744" r="14.744" transform="translate(88.695 83.953) rotate(-80.783)" fill="#ffb9b9"/><path d="M311.483,227.35c5.324,7.781-1.229,12.286-1.229,12.286l-2.867,21.3s30.716,2.867,36.04-1.229-6.143-17.61-10.239-18.839-4.915-18.02-4.915-18.02Z" transform="translate(-212.017 -144.53)" fill="#ffb9b9"/><path d="M305.024,243.339l-16.159-2.528-1.843,17.406s.819,38.907,0,45.869,13.924,14.744,13.924,14.744,21.3-1.638,25.392-3.686,17.2,2.048,17.2,2.048a11.074,11.074,0,0,0,4.3-.614c2.457-.819-6.348-59.179-6.348-59.179l-7.782-18.02-9.42,3.686-2.867,13.515Z" transform="translate(-204.756 -150.415)" fill="#ff1d79"/><path d="M206.144,134.918l16.382-20.887,11.467-28.258L218.021,79.63l-6.553,23.344L200,116.9l-.41,2.457Z" transform="translate(-71.047 -28.345)" fill="#ff1d79"/><path d="M288.92,315.238l40.574,1.527s15.121-8.331,18.009,2.468-18.7,5.856-18.7,5.856l-38.666.728Z" transform="translate(-205.443 -176.87)" fill="#ffb9b9"/><path d="M286.278,286.414l18.839,1.229,2.457,12.7s-22.935-.41-31.945-.819,0-38.5,1.229-49.964,7.372-8.191,7.372-8.191l3.686,2.867Z" transform="translate(-199.302 -150.968)" fill="#ff1d79"/><path d="M138.55,192.63l16.382,6.553-18.02-3.686-1.229-23.344Z" transform="translate(-48.298 -61.28)" opacity="0.15"/><path d="M171.425,96.685l-27.05.644L141.155,83.8h30.27Z" transform="translate(-50.246 -29.831)" fill="#2f2e41"/></g></svg>