<svg xmlns="http://www.w3.org/2000/svg" width="580.455" height="402.208" viewBox="0 0 580.455 402.208">
  <g id="undraw_accept_tasks_po1c" transform="translate(0 0)">
    <path id="Path_13194" data-name="Path 13194" d="M902.455,379.51a249.9,249.9,0,0,1-32.389,62.124c-.315.444-.634.877-.956,1.319l-41.446-13.422c.187-.428.392-.907.61-1.431,13.053-30.875,91.6-219.073,83.264-258.309C912.334,173.013,938.359,279.605,902.455,379.51Z" transform="translate(-374.043 -169.791)" fill="#e6e6e6"/>
    <path id="Path_13195" data-name="Path 13195" d="M885.044,500.958c-.506.382-1.027.758-1.553,1.125L852.4,492.014c.372-.344.8-.749,1.3-1.207,8.139-7.607,32.318-30.4,55.736-54.563,25.166-25.966,49.459-53.51,52.044-65.489C960.994,373.489,945.661,456.639,885.044,500.958Z" transform="translate(-381.026 -226.525)" fill="#e6e6e6"/>
    <path id="Path_13196" data-name="Path 13196" d="M746.465,716.555H213.482a17.871,17.871,0,0,1-17.871-17.871h0q289.81-33.682,568.725,0h0A17.871,17.871,0,0,1,746.465,716.555Z" transform="translate(-195.611 -314.346)" fill="#2f2e41"/>
    <path id="Path_13197" data-name="Path 13197" d="M764.336,557.5l-568.725-1.051,65.913-110.907.315-.526V200.586a22.59,22.59,0,0,1,22.593-22.591h387.93a22.59,22.59,0,0,1,22.591,22.593V446.694Z" transform="translate(-195.611 -172.107)" fill="#3f3d56"/>
    <path id="Path_13198" data-name="Path 13198" d="M315.756,199.966a7.367,7.367,0,0,0-7.359,7.359V430.189a7.367,7.367,0,0,0,7.359,7.359H707.872a7.368,7.368,0,0,0,7.359-7.359V207.324a7.367,7.367,0,0,0-7.359-7.359Z" transform="translate(-227.451 -178.309)" fill="#fff"/>
    <path id="Path_13199" data-name="Path 13199" d="M313.011,572.015a3.162,3.162,0,0,0-2.865,1.836L289.836,618a3.154,3.154,0,0,0,2.865,4.472H719.809a3.153,3.153,0,0,0,2.82-4.564l-22.076-44.152a3.138,3.138,0,0,0-2.82-1.743Z" transform="translate(-222.13 -283.341)" fill="#2f2e41"/>
    <circle id="Ellipse_486" data-name="Ellipse 486" cx="4.731" cy="4.731" r="4.731" transform="translate(278.056 8.516)" fill="#fff"/>
    <path id="Path_13200" data-name="Path 13200" d="M527.893,654.042a3.159,3.159,0,0,0-3.045,2.333L519.753,675.3a3.154,3.154,0,0,0,3.045,3.974h96.887a3.153,3.153,0,0,0,2.979-4.186l-6.55-18.923a3.156,3.156,0,0,0-2.98-2.122Z" transform="translate(-287.088 -306.498)" fill="#2f2e41"/>
    <path id="Path_13201" data-name="Path 13201" d="M525.27,375.126v4.2H91.84l.327-.525v-3.68Z" transform="translate(-25.927 -105.9)" fill="#2f2e41"/>
    <path id="Path_13202" data-name="Path 13202" d="M634.544,254.83H532.28V256.7H634.544a18.984,18.984,0,0,1,0,37.967H479.8a18.984,18.984,0,1,1,0-37.967h5.783V254.83H479.8a20.851,20.851,0,1,0,0,41.7H634.544a20.851,20.851,0,1,0,0-41.7Z" transform="translate(-269.953 -193.798)" fill="#e6e6e6"/>
    <path id="Path_13203" data-name="Path 13203" d="M634.544,344.619H532.28v1.868H634.544a18.984,18.984,0,0,1,0,37.967H479.8a18.984,18.984,0,1,1,0-37.967h5.783v-1.868H479.8a20.851,20.851,0,1,0,0,41.7H634.544a20.851,20.851,0,0,0,0-41.7Z" transform="translate(-269.953 -219.146)" fill="#e6e6e6"/>
    <path id="Path_13204" data-name="Path 13204" d="M634.544,434.407H532.28v1.868H634.544a18.984,18.984,0,0,1,0,37.967H479.8a18.984,18.984,0,1,1,0-37.967h5.783v-1.868H479.8a20.851,20.851,0,1,0,0,41.7H634.544a20.851,20.851,0,0,0,0-41.7Z" transform="translate(-269.953 -244.494)" fill="#e6e6e6"/>
    <path id="Path_40" data-name="Path 40" d="M509.959,247.954a5.554,5.554,0,1,0,0,11.107h24.362a5.554,5.554,0,1,0,.182-11.106q-.091,0-.182,0Z" transform="translate(-282.785 -191.856)" fill="#3f3d56"/>
    <path id="Path_40-2" data-name="Path 40" d="M509.959,339.044a5.554,5.554,0,1,0,0,11.107h24.362a5.554,5.554,0,1,0,.182-11.106q-.091,0-.182,0Z" transform="translate(-282.785 -217.572)" fill="#3f3d56"/>
    <path id="Path_40-3" data-name="Path 40" d="M509.959,427.532a5.554,5.554,0,1,0,0,11.107h24.362a5.554,5.554,0,0,0,.182-11.106q-.091,0-.182,0Z" transform="translate(-282.786 -242.553)" fill="#3f3d56"/>
    <path id="Path_40-4" data-name="Path 40" d="M496.5,276.146a5.554,5.554,0,1,0,0,11.107H635.731a5.554,5.554,0,0,0,.182-11.106q-.091,0-.182,0Z" transform="translate(-278.985 -199.815)" fill="#ff1d79"/>
    <path id="Path_40-5" data-name="Path 40" d="M496.5,365.935a5.554,5.554,0,1,0,0,11.107H635.731a5.554,5.554,0,0,0,.182-11.106H496.5Z" transform="translate(-278.985 -225.163)" fill="#ff1d79"/>
    <path id="Path_40-6" data-name="Path 40" d="M496.5,455.723a5.553,5.553,0,1,0,0,11.107H635.731a5.554,5.554,0,0,0,.182-11.106q-.091,0-.182,0Z" transform="translate(-278.985 -250.511)" fill="#e6e6e6"/>
    <circle id="Ellipse_487" data-name="Ellipse 487" cx="11.121" cy="11.121" r="11.121" transform="translate(154.677 70.325)" fill="#ff1d79"/>
    <path id="Path_13205" data-name="Path 13205" d="M228.3,116.258l-3.24-4.165,1.884-1.466,1.534,1.972,5.182-5.47,1.733,1.642Z" transform="translate(-63.537 -30.243)" fill="#fff"/>
    <circle id="Ellipse_488" data-name="Ellipse 488" cx="11.121" cy="11.121" r="11.121" transform="translate(154.677 134.766)" fill="#ff1d79"/>
    <path id="Path_13206" data-name="Path 13206" d="M228.3,206.047l-3.24-4.165,1.884-1.466,1.534,1.972,5.182-5.47,1.733,1.642Z" transform="translate(-63.537 -55.591)" fill="#fff"/>
    <circle id="Ellipse_489" data-name="Ellipse 489" cx="11.121" cy="11.121" r="11.121" transform="translate(154.677 199.206)" fill="#e6e6e6"/>
    <circle id="Ellipse_490" data-name="Ellipse 490" cx="11.121" cy="11.121" r="11.121" transform="translate(398.431 70.325)" fill="#e6e6e6"/>
    <circle id="Ellipse_491" data-name="Ellipse 491" cx="11.121" cy="11.121" r="11.121" transform="translate(398.431 134.766)" fill="#e6e6e6"/>
    <circle id="Ellipse_492" data-name="Ellipse 492" cx="11.121" cy="11.121" r="11.121" transform="translate(398.431 199.206)" fill="#e6e6e6"/>
    <path id="Path_13207" data-name="Path 13207" d="M228.3,295.836l-3.24-4.165,1.884-1.466,1.534,1.972,5.182-5.47,1.733,1.641Z" transform="translate(-63.537 -80.939)" fill="#fff"/>
    <rect id="Rectangle_1122" data-name="Rectangle 1122" width="1.309" height="8.794" transform="translate(405.819 78.799) rotate(-45)" fill="#fff"/>
    <rect id="Rectangle_1123" data-name="Rectangle 1123" width="8.794" height="1.309" transform="translate(406.146 84.092) rotate(-45)" fill="#fff"/>
    <rect id="Rectangle_1124" data-name="Rectangle 1124" width="1.309" height="8.794" transform="translate(405.819 143.24) rotate(-45)" fill="#fff"/>
    <rect id="Rectangle_1125" data-name="Rectangle 1125" width="8.794" height="1.309" transform="translate(406.146 148.533) rotate(-45)" fill="#fff"/>
    <rect id="Rectangle_1126" data-name="Rectangle 1126" width="1.309" height="8.794" transform="translate(405.819 207.681) rotate(-45)" fill="#fff"/>
    <rect id="Rectangle_1127" data-name="Rectangle 1127" width="8.794" height="1.309" transform="translate(406.146 212.973) rotate(-45)" fill="#fff"/>
    <path id="Path_13208" data-name="Path 13208" d="M421.958,447.3h0a8.03,8.03,0,0,0,1.487-12.126l-10.676-11.637-10.254,5.192,7.849,15.5a8.03,8.03,0,0,0,11.595,3.07Z" transform="translate(-254.021 -241.424)" fill="#ffb8b8"/>
    <path id="Path_13209" data-name="Path 13209" d="M233.794,494.827h0a8.03,8.03,0,0,0,6.8-10.147l-4.268-15.2H224.836V486.85a8.03,8.03,0,0,0,8.958,7.976Z" transform="translate(-203.861 -254.394)" fill="#ffb8b8"/>
    <path id="Path_13210" data-name="Path 13210" d="M134.211,489.805l21.711-3.406-8.94-9.366H134.211Z" transform="translate(-37.889 -134.67)" fill="#ffb8b8"/>
    <path id="Path_13211" data-name="Path 13211" d="M232.547,659.276l22.562,5.96c-4.156-8.62-6.714-16.248-5.108-21.285l-10.642-1.277Z" transform="translate(-206.038 -303.289)" fill="#ffb8b8"/>
    <path id="Path_13212" data-name="Path 13212" d="M43.46,412.05l13.2,2.554,36.184-116.64,15.325,116.215h14.048l-1.277-164.318H66.448Z" transform="translate(-12.269 -70.537)" fill="#575a88"/>
    <path id="Path_13213" data-name="Path 13213" d="M333.451,665.494l21.475-7.064a4.177,4.177,0,0,0,2.431-5.835h0a4.177,4.177,0,0,0-4.017-2.3l-4.871.329-1.909-1.074a1.111,1.111,0,0,0-1.572,1.391l1.761,4.276-17.879-1.277L327.987,661a4.188,4.188,0,0,0,5.464,4.5Z" transform="translate(-232.972 -305.19)" fill="#575a88"/>
    <path id="Path_13214" data-name="Path 13214" d="M232.885,671.288l23.344,1.514a4.322,4.322,0,0,0,4.587-4.663h0a4.322,4.322,0,0,0-2.968-3.759l-4.8-1.566-1.418-1.769a1.149,1.149,0,0,0-2.046.728l.039,4.784-16.67-8.132-3.573,6.434a4.333,4.333,0,0,0,3.508,6.428Z" transform="translate(-204.989 -307.736)" fill="#575a88"/>
    <circle id="Ellipse_493" data-name="Ellipse 493" cx="15.751" cy="15.751" r="15.751" transform="translate(61.841 55.872)" fill="#ffb8b8"/>
    <path id="Path_13215" data-name="Path 13215" d="M289.488,301.715H311.2V280.856h-21.71C291.282,287.3,291.05,294.317,289.488,301.715Z" transform="translate(-222.113 -201.145)" fill="#ffb8b8"/>
    <path id="Path_13216" data-name="Path 13216" d="M263.76,386.938l59.6.851,5.96-62.963a19.663,19.663,0,0,0-13.34-18.618l-9.222-3.132-5.108-5.96c-6.45-1.394-13.467-1.056-20.859.426l-5.534,8.088-5.959,1.9a19.6,19.6,0,0,0-13.634,19.224C260.095,349.661,263.542,370.948,263.76,386.938Z" transform="translate(-212.561 -205.486)" fill="#ff1d79"/>
    <path id="Path_13217" data-name="Path 13217" d="M221.87,425.772l14.9,1.7L253.8,358.938l1.7-44.272-.5.243A28.2,28.2,0,0,0,239.6,334.892Z" transform="translate(-203.024 -210.69)" fill="#ff1d79"/>
    <path id="Path_13218" data-name="Path 13218" d="M385.79,399.058l11.494-5.534-33.712-62.907a44.075,44.075,0,0,0-22.479-20.1h0l6.385,40.015Z" transform="translate(-236.681 -209.518)" fill="#ff1d79"/>
    <path id="Path_13219" data-name="Path 13219" d="M287.1,274.99s15.445-.916,15.779-3.587,2.589-8.766,5.261-8.431,10.075-8.571,8.49-12.162-9.07-16.808-24.348-10.716-13.528,21.37-11.942,24.96S287.1,274.99,287.1,274.99Z" transform="translate(-219.246 -189.191)" fill="#2f2e41"/>
    <path id="Path_13220" data-name="Path 13220" d="M816.04,558.338a.769.769,0,0,0-.742.568l-1.241,4.608a.768.768,0,0,0,.742.968h23.593a.768.768,0,0,0,.725-1.019l-1.595-4.608a.768.768,0,0,0-.726-.517Z" transform="translate(-370.195 -279.48)" fill="#ff1d79"/>
    <path id="Path_13221" data-name="Path 13221" d="M768.04,558.338a.769.769,0,0,0-.741.568l-1.241,4.608a.768.768,0,0,0,.741.968h23.593a.768.768,0,0,0,.726-1.019l-1.6-4.608a.768.768,0,0,0-.726-.517Z" transform="translate(-356.644 -279.48)" fill="#ff1d79"/>
  </g>
</svg>
